<svg width="1728" height="430" viewBox="0 0 1728 430" fill="none" xmlns="http://www.w3.org/2000/svg">
<path d="M67.66 261.95C67.66 262.903 67.1833 263.637 66.23 264.15L36.09 275.59L66.23 287.03C66.5967 287.177 66.9267 287.47 67.22 287.91C67.5133 288.277 67.66 288.68 67.66 289.12V293.3C67.66 294.107 67.4033 294.767 66.89 295.28C66.45 295.72 65.8633 295.94 65.13 295.94C64.47 295.94 63.8467 295.757 63.26 295.39L22.12 279.44C20.8733 278.927 20.25 277.937 20.25 276.47V274.6C20.25 273.207 20.8733 272.253 22.12 271.74L63.26 255.79C63.8467 255.423 64.47 255.24 65.13 255.24C65.8633 255.24 66.45 255.497 66.89 256.01C67.4033 256.45 67.66 257.037 67.66 257.77V261.95ZM239.834 271.74C241.081 272.253 241.704 273.207 241.704 274.6V276.47C241.704 277.937 241.081 278.927 239.834 279.44L198.694 295.39C197.961 295.757 197.337 295.94 196.824 295.94C196.091 295.94 195.467 295.72 194.954 295.28C194.514 294.767 194.294 294.107 194.294 293.3V289.12C194.294 288.68 194.441 288.277 194.734 287.91C195.027 287.47 195.357 287.177 195.724 287.03L225.864 275.59L195.724 264.15C194.771 263.637 194.294 262.903 194.294 261.95V257.77C194.294 257.037 194.514 256.45 194.954 256.01C195.467 255.497 196.091 255.24 196.824 255.24C197.337 255.24 197.961 255.423 198.694 255.79L239.834 271.74ZM1486.27 261.95C1486.27 262.903 1485.8 263.637 1484.84 264.15L1454.7 275.59L1484.84 287.03C1485.21 287.177 1485.54 287.47 1485.83 287.91C1486.13 288.277 1486.27 288.68 1486.27 289.12V293.3C1486.27 294.107 1486.02 294.767 1485.5 295.28C1485.06 295.72 1484.48 295.94 1483.74 295.94C1483.08 295.94 1482.46 295.757 1481.87 295.39L1440.73 279.44C1439.49 278.927 1438.86 277.937 1438.86 276.47V274.6C1438.86 273.207 1439.49 272.253 1440.73 271.74L1481.87 255.79C1482.46 255.423 1483.08 255.24 1483.74 255.24C1484.48 255.24 1485.06 255.497 1485.5 256.01C1486.02 256.45 1486.27 257.037 1486.27 257.77V261.95ZM1500.97 337.3C1499.58 337.3 1498.88 336.677 1498.88 335.43C1498.88 334.917 1498.95 334.367 1499.1 333.78L1530.34 233.79C1531 231.663 1532.06 230.6 1533.53 230.6H1538.26C1539.65 230.6 1540.35 231.223 1540.35 232.47C1540.35 233.13 1540.24 233.68 1540.02 234.12L1508.89 334.11C1508.23 336.237 1507.17 337.3 1505.7 337.3H1500.97ZM1704.53 271.74C1705.78 272.253 1706.4 273.207 1706.4 274.6V276.47C1706.4 277.937 1705.78 278.927 1704.53 279.44L1663.39 295.39C1662.66 295.757 1662.03 295.94 1661.52 295.94C1660.79 295.94 1660.16 295.72 1659.65 295.28C1659.21 294.767 1658.99 294.107 1658.99 293.3V289.12C1658.99 288.68 1659.14 288.277 1659.43 287.91C1659.72 287.47 1660.05 287.177 1660.42 287.03L1690.56 275.59L1660.42 264.15C1659.47 263.637 1658.99 262.903 1658.99 261.95V257.77C1658.99 257.037 1659.21 256.45 1659.65 256.01C1660.16 255.497 1660.79 255.24 1661.52 255.24C1662.03 255.24 1662.66 255.423 1663.39 255.79L1704.53 271.74Z" fill="#A9A9A9"/>
<path d="M138.237 303.31C140.584 303.31 141.757 304.3 141.757 306.28V309.03C141.757 311.01 140.584 312 138.237 312H122.617C120.27 312 119.097 311.01 119.097 309.03V306.28C119.097 304.3 120.27 303.31 122.617 303.31H125.477V282.08C125.477 275.7 124.634 271.19 122.947 268.55C121.334 265.837 118.584 264.48 114.697 264.48C111.984 264.48 109.344 265.397 106.777 267.23C104.284 268.99 102.23 271.3 100.617 274.16C99.077 277.02 98.307 280.027 98.307 283.18V303.31H101.167C103.587 303.31 104.797 304.3 104.797 306.28V309.03C104.797 311.01 103.587 312 101.167 312H85.657C83.237 312 82.027 311.01 82.027 309.03V306.28C82.027 304.3 83.237 303.31 85.657 303.31H88.517V239.29H85.657C83.237 239.29 82.027 238.3 82.027 236.32V233.57C82.027 231.59 83.237 230.6 85.657 230.6H94.347C95.447 230.6 96.3637 231.003 97.097 231.81C97.9037 232.543 98.307 233.497 98.307 234.67V269.32C99.9204 265.507 102.487 262.317 106.007 259.75C109.527 257.183 113.194 255.9 117.007 255.9C123.094 255.9 127.677 257.99 130.757 262.17C133.837 266.277 135.377 272.4 135.377 280.54V303.31H138.237ZM175.998 303.31C178.418 303.31 179.628 304.3 179.628 306.28V309.03C179.628 311.01 178.418 312 175.998 312H160.378C157.958 312 156.748 311.01 156.748 309.03V306.28C156.748 304.3 157.958 303.31 160.378 303.31H163.238V257.33H153.008C152.128 257.33 151.395 257.037 150.808 256.45C150.221 255.79 149.928 255.02 149.928 254.14V251.83C149.928 250.877 150.221 250.107 150.808 249.52C151.395 248.933 152.128 248.64 153.008 248.64H159.388C160.488 248.64 161.405 248.273 162.138 247.54C162.871 246.807 163.238 245.853 163.238 244.68V239.07C163.238 237.897 163.605 236.943 164.338 236.21C165.071 235.403 165.988 235 167.088 235H169.288C170.388 235 171.305 235.403 172.038 236.21C172.771 236.943 173.138 237.897 173.138 239.07V303.31H175.998ZM1602.93 303.31C1605.28 303.31 1606.45 304.3 1606.45 306.28V309.03C1606.45 311.01 1605.28 312 1602.93 312H1587.31C1584.97 312 1583.79 311.01 1583.79 309.03V306.28C1583.79 304.3 1584.97 303.31 1587.31 303.31H1590.17V282.08C1590.17 275.7 1589.33 271.19 1587.64 268.55C1586.03 265.837 1583.28 264.48 1579.39 264.48C1576.68 264.48 1574.04 265.397 1571.47 267.23C1568.98 268.99 1566.93 271.3 1565.31 274.16C1563.77 277.02 1563 280.027 1563 283.18V303.31H1565.86C1568.28 303.31 1569.49 304.3 1569.49 306.28V309.03C1569.49 311.01 1568.28 312 1565.86 312H1550.35C1547.93 312 1546.72 311.01 1546.72 309.03V306.28C1546.72 304.3 1547.93 303.31 1550.35 303.31H1553.21V239.29H1550.35C1547.93 239.29 1546.72 238.3 1546.72 236.32V233.57C1546.72 231.59 1547.93 230.6 1550.35 230.6H1559.04C1560.14 230.6 1561.06 231.003 1561.79 231.81C1562.6 232.543 1563 233.497 1563 234.67V269.32C1564.62 265.507 1567.18 262.317 1570.7 259.75C1574.22 257.183 1577.89 255.9 1581.7 255.9C1587.79 255.9 1592.37 257.99 1595.45 262.17C1598.53 266.277 1600.07 272.4 1600.07 280.54V303.31H1602.93ZM1640.7 303.31C1643.12 303.31 1644.33 304.3 1644.33 306.28V309.03C1644.33 311.01 1643.12 312 1640.7 312H1625.08C1622.66 312 1621.45 311.01 1621.45 309.03V306.28C1621.45 304.3 1622.66 303.31 1625.08 303.31H1627.94V257.33H1617.71C1616.83 257.33 1616.09 257.037 1615.51 256.45C1614.92 255.79 1614.63 255.02 1614.63 254.14V251.83C1614.63 250.877 1614.92 250.107 1615.51 249.52C1616.09 248.933 1616.83 248.64 1617.71 248.64H1624.09C1625.19 248.64 1626.1 248.273 1626.84 247.54C1627.57 246.807 1627.94 245.853 1627.94 244.68V239.07C1627.94 237.897 1628.3 236.943 1629.04 236.21C1629.77 235.403 1630.69 235 1631.79 235H1633.99C1635.09 235 1636 235.403 1636.74 236.21C1637.47 236.943 1637.84 237.897 1637.84 239.07V303.31H1640.7Z" fill="#FFA3A3"/>
<path d="M340.157 235C341.403 235 342.43 235.44 343.237 236.32C344.043 237.127 344.447 238.153 344.447 239.4V249.63C344.447 252.05 343.493 253.26 341.587 253.26H338.727C336.82 253.26 335.867 252.05 335.867 249.63V243.69H304.517V269.1H328.717C329.597 269.1 330.33 269.43 330.917 270.09C331.577 270.677 331.907 271.41 331.907 272.29V274.6C331.907 275.48 331.577 276.25 330.917 276.91C330.33 277.497 329.597 277.79 328.717 277.79H304.517V303.31H313.317C315.663 303.31 316.837 304.3 316.837 306.28V309.03C316.837 311.01 315.663 312 313.317 312H291.757C289.337 312 288.127 311.01 288.127 309.03V306.28C288.127 304.3 289.337 303.31 291.757 303.31H294.617V243.69H291.757C289.337 243.69 288.127 242.7 288.127 240.72V237.97C288.127 235.99 289.337 235 291.757 235H340.157ZM382.748 255.9C385.681 255.9 387.918 256.597 389.458 257.99C390.998 259.31 391.768 261.18 391.768 263.6C391.768 265.507 391.145 267.12 389.898 268.44C388.651 269.687 387.038 270.31 385.058 270.31C383.298 270.31 381.831 269.797 380.658 268.77C379.485 267.67 378.825 266.277 378.678 264.59C376.405 264.81 374.315 265.91 372.408 267.89C370.501 269.797 368.961 272.29 367.788 275.37C366.688 278.377 366.138 281.603 366.138 285.05V303.31H371.308C373.728 303.31 374.938 304.3 374.938 306.28V309.03C374.938 311.01 373.728 312 371.308 312H353.378C351.031 312 349.858 311.01 349.858 309.03V306.28C349.858 304.3 351.031 303.31 353.378 303.31H356.238V265.69H353.378C351.031 265.69 349.858 264.7 349.858 262.72V259.97C349.858 257.99 351.031 257 353.378 257H362.068C363.241 257 364.195 257.403 364.928 258.21C365.735 258.943 366.138 259.897 366.138 261.07V270.75C367.458 266.203 369.585 262.61 372.518 259.97C375.525 257.257 378.935 255.9 382.748 255.9ZM425.03 313.1C419.824 313.1 415.24 311.963 411.28 309.69C407.32 307.343 404.277 304.043 402.15 299.79C400.024 295.537 398.96 290.623 398.96 285.05C398.96 279.257 400.06 274.16 402.26 269.76C404.46 265.36 407.54 261.95 411.5 259.53C415.46 257.11 420.08 255.9 425.36 255.9C430.567 255.9 435.15 257.073 439.11 259.42C443.07 261.693 446.114 264.957 448.24 269.21C450.367 273.463 451.43 278.377 451.43 283.95C451.43 289.743 450.33 294.84 448.13 299.24C445.93 303.64 442.85 307.05 438.89 309.47C434.93 311.89 430.31 313.1 425.03 313.1ZM425.03 304.52C430.237 304.52 434.27 302.723 437.13 299.13C439.99 295.537 441.42 290.513 441.42 284.06C441.42 277.753 440.027 272.913 437.24 269.54C434.454 266.167 430.494 264.48 425.36 264.48C420.227 264.48 416.194 266.313 413.26 269.98C410.4 273.573 408.97 278.56 408.97 284.94C408.97 291.173 410.364 296.013 413.15 299.46C415.937 302.833 419.897 304.52 425.03 304.52ZM517.986 303.31C520.333 303.31 521.506 304.3 521.506 306.28V309.03C521.506 311.01 520.333 312 517.986 312H502.696C500.276 312 499.066 311.01 499.066 309.03V306.28C499.066 304.3 500.276 303.31 502.696 303.31H505.226V282.08C505.226 275.553 504.42 271.007 502.806 268.44C501.266 265.8 498.553 264.48 494.666 264.48C491.953 264.48 489.35 265.397 486.856 267.23C484.436 268.99 482.456 271.3 480.916 274.16C479.45 277.02 478.716 280.027 478.716 283.18V303.31H481.246C483.666 303.31 484.876 304.3 484.876 306.28V309.03C484.876 311.01 483.666 312 481.246 312H465.956C463.61 312 462.436 311.01 462.436 309.03V306.28C462.436 304.3 463.61 303.31 465.956 303.31H468.816V265.69H465.956C463.61 265.69 462.436 264.7 462.436 262.72V259.97C462.436 257.99 463.61 257 465.956 257H474.646C475.82 257 476.773 257.403 477.506 258.21C478.313 258.943 478.716 259.897 478.716 261.07V269.32C480.256 265.433 482.75 262.243 486.196 259.75C489.716 257.183 493.346 255.9 497.086 255.9C509.113 255.9 515.126 264.113 515.126 280.54V303.31H517.986ZM569.484 293.96C570.658 293.96 571.684 294.327 572.564 295.06C573.444 295.72 573.884 296.563 573.884 297.59C573.884 298.763 573.518 300.083 572.784 301.55C571.098 304.923 569.081 307.71 566.734 309.91C564.388 312.037 561.161 313.1 557.054 313.1C551.041 313.1 546.458 311.303 543.304 307.71C540.224 304.117 538.684 298.873 538.684 291.98V265.58H531.864C530.544 265.58 529.518 265.25 528.784 264.59C528.124 263.93 527.794 263.013 527.794 261.84V260.63C527.794 259.457 528.124 258.577 528.784 257.99C529.518 257.33 530.544 257 531.864 257H538.684V246.88C538.684 245.56 539.014 244.57 539.674 243.91C540.408 243.177 541.398 242.81 542.644 242.81H544.734C545.981 242.81 546.934 243.177 547.594 243.91C548.254 244.57 548.584 245.56 548.584 246.88V257H562.884C564.204 257 565.194 257.33 565.854 257.99C566.588 258.577 566.954 259.457 566.954 260.63V261.84C566.954 263.013 566.588 263.93 565.854 264.59C565.194 265.25 564.204 265.58 562.884 265.58H548.584V291.76C548.584 300.267 551.518 304.52 557.384 304.52C559.658 304.52 561.344 303.933 562.444 302.76C563.618 301.513 564.828 299.46 566.074 296.6C566.588 295.647 567.064 294.987 567.504 294.62C568.018 294.18 568.678 293.96 569.484 293.96ZM590.014 280.21C588.694 280.21 587.704 279.88 587.044 279.22C586.384 278.56 586.054 277.68 586.054 276.58V275.26C586.054 274.087 586.384 273.17 587.044 272.51C587.704 271.85 588.694 271.52 590.014 271.52H627.854C629.174 271.52 630.164 271.85 630.824 272.51C631.484 273.17 631.814 274.087 631.814 275.26V276.58C631.814 277.68 631.484 278.56 630.824 279.22C630.164 279.88 629.174 280.21 627.854 280.21H590.014ZM695.853 281.75C695.853 282.117 695.743 283.73 695.523 286.59H656.473C656.839 292.163 658.453 296.563 661.313 299.79C664.173 302.943 667.986 304.52 672.753 304.52C675.979 304.52 678.546 304.007 680.453 302.98C682.359 301.953 684.156 300.12 685.843 297.48C686.429 296.6 686.979 295.977 687.493 295.61C688.079 295.243 688.739 295.06 689.473 295.06C690.573 295.06 691.526 295.427 692.333 296.16C693.213 296.82 693.653 297.663 693.653 298.69C693.653 300.083 693.139 301.513 692.113 302.98C689.986 306.427 687.346 308.993 684.193 310.68C681.039 312.293 677.116 313.1 672.423 313.1C667.216 313.1 662.633 311.89 658.673 309.47C654.786 307.05 651.743 303.64 649.543 299.24C647.416 294.84 646.353 289.78 646.353 284.06C646.353 278.413 647.416 273.463 649.543 269.21C651.669 264.957 654.676 261.693 658.563 259.42C662.449 257.073 666.959 255.9 672.093 255.9C679.206 255.9 684.926 258.173 689.253 262.72C693.653 267.267 695.853 273.61 695.853 281.75ZM671.873 264.04C667.546 264.04 664.063 265.36 661.423 268C658.856 270.567 657.279 274.307 656.693 279.22H685.843C685.769 269.1 681.113 264.04 671.873 264.04ZM762.264 303.31C764.61 303.31 765.784 304.3 765.784 306.28V309.03C765.784 311.01 764.61 312 762.264 312H746.974C744.554 312 743.344 311.01 743.344 309.03V306.28C743.344 304.3 744.554 303.31 746.974 303.31H749.504V282.08C749.504 275.553 748.697 271.007 747.084 268.44C745.544 265.8 742.83 264.48 738.944 264.48C736.23 264.48 733.627 265.397 731.134 267.23C728.714 268.99 726.734 271.3 725.194 274.16C723.727 277.02 722.994 280.027 722.994 283.18V303.31H725.524C727.944 303.31 729.154 304.3 729.154 306.28V309.03C729.154 311.01 727.944 312 725.524 312H710.234C707.887 312 706.714 311.01 706.714 309.03V306.28C706.714 304.3 707.887 303.31 710.234 303.31H713.094V265.69H710.234C707.887 265.69 706.714 264.7 706.714 262.72V259.97C706.714 257.99 707.887 257 710.234 257H718.924C720.097 257 721.05 257.403 721.784 258.21C722.59 258.943 722.994 259.897 722.994 261.07V269.32C724.534 265.433 727.027 262.243 730.474 259.75C733.994 257.183 737.624 255.9 741.364 255.9C753.39 255.9 759.404 264.113 759.404 280.54V303.31H762.264ZM828.062 303.31C830.482 303.31 831.692 304.3 831.692 306.28V309.03C831.692 311.01 830.482 312 828.062 312H819.482C818.308 312 817.318 311.633 816.512 310.9C815.778 310.093 815.412 309.103 815.412 307.93V301C814.092 304.447 811.708 307.343 808.262 309.69C804.888 311.963 801.295 313.1 797.482 313.1C793.082 313.1 789.195 311.963 785.822 309.69C782.522 307.417 779.955 304.19 778.122 300.01C776.362 295.757 775.482 290.807 775.482 285.16C775.482 276.067 777.608 268.917 781.862 263.71C786.188 258.503 792.092 255.9 799.572 255.9C802.652 255.9 805.585 256.633 808.372 258.1C811.158 259.567 813.505 261.62 815.412 264.26V239.29H812.552C810.132 239.29 808.922 238.3 808.922 236.32V233.57C808.922 231.59 810.132 230.6 812.552 230.6H821.352C822.452 230.6 823.368 231.003 824.102 231.81C824.835 232.543 825.202 233.497 825.202 234.67V303.31H828.062ZM799.682 304.52C802.542 304.52 805.182 303.75 807.602 302.21C810.022 300.597 811.928 298.433 813.322 295.72C814.715 293.007 815.412 290.037 815.412 286.81V272.51C813.358 269.943 811.048 267.963 808.482 266.57C805.988 265.177 803.348 264.48 800.562 264.48C795.648 264.48 791.908 266.313 789.342 269.98C786.775 273.573 785.492 278.817 785.492 285.71C785.492 291.65 786.738 296.27 789.232 299.57C791.725 302.87 795.208 304.52 799.682 304.52ZM901.536 235C913.27 235 922.29 238.19 928.596 244.57C934.976 250.877 938.166 259.933 938.166 271.74C938.166 279.88 936.663 286.993 933.656 293.08C930.65 299.093 926.36 303.75 920.786 307.05C915.213 310.35 908.686 312 901.206 312H876.346C873.926 312 872.716 311.01 872.716 309.03V306.28C872.716 304.3 873.926 303.31 876.346 303.31H879.206V243.69H876.346C873.926 243.69 872.716 242.7 872.716 240.72V237.97C872.716 235.99 873.926 235 876.346 235H901.536ZM900.216 303.31C909.163 303.31 916.02 300.597 920.786 295.17C925.626 289.743 928.046 282.043 928.046 272.07C928.046 262.463 925.81 255.35 921.336 250.73C916.863 246.037 910.043 243.69 900.876 243.69H889.106V303.31H900.216ZM1000.82 281.75C1000.82 282.117 1000.71 283.73 1000.49 286.59H961.444C961.81 292.163 963.424 296.563 966.284 299.79C969.144 302.943 972.957 304.52 977.724 304.52C980.95 304.52 983.517 304.007 985.424 302.98C987.33 301.953 989.127 300.12 990.814 297.48C991.4 296.6 991.95 295.977 992.464 295.61C993.05 295.243 993.71 295.06 994.444 295.06C995.544 295.06 996.497 295.427 997.304 296.16C998.184 296.82 998.624 297.663 998.624 298.69C998.624 300.083 998.11 301.513 997.084 302.98C994.957 306.427 992.317 308.993 989.164 310.68C986.01 312.293 982.087 313.1 977.394 313.1C972.187 313.1 967.604 311.89 963.644 309.47C959.757 307.05 956.714 303.64 954.514 299.24C952.387 294.84 951.324 289.78 951.324 284.06C951.324 278.413 952.387 273.463 954.514 269.21C956.64 264.957 959.647 261.693 963.534 259.42C967.42 257.073 971.93 255.9 977.064 255.9C984.177 255.9 989.897 258.173 994.224 262.72C998.624 267.267 1000.82 273.61 1000.82 281.75ZM976.844 264.04C972.517 264.04 969.034 265.36 966.394 268C963.827 270.567 962.25 274.307 961.664 279.22H990.814C990.74 269.1 986.084 264.04 976.844 264.04ZM1064.04 257C1066.39 257 1067.56 257.99 1067.56 259.97V262.72C1067.56 264.7 1066.39 265.69 1064.04 265.69H1061.18L1043.14 309.69C1042.56 311.23 1041.42 312 1039.73 312H1036.76C1035.22 312 1034.09 311.23 1033.35 309.69L1015.42 265.69H1012.56C1010.14 265.69 1008.93 264.7 1008.93 262.72V259.97C1008.93 257.99 1010.14 257 1012.56 257H1027.63C1029.98 257 1031.15 257.99 1031.15 259.97V262.72C1031.15 264.7 1029.98 265.69 1027.63 265.69H1025.76L1038.74 298.14L1051.72 265.69H1049.52C1047.1 265.69 1045.89 264.7 1045.89 262.72V259.97C1045.89 257.99 1047.1 257 1049.52 257H1064.04ZM1122.75 281.75C1122.75 282.117 1122.64 283.73 1122.42 286.59H1083.37C1083.73 292.163 1085.35 296.563 1088.21 299.79C1091.07 302.943 1094.88 304.52 1099.65 304.52C1102.87 304.52 1105.44 304.007 1107.35 302.98C1109.25 301.953 1111.05 300.12 1112.74 297.48C1113.32 296.6 1113.87 295.977 1114.39 295.61C1114.97 295.243 1115.63 295.06 1116.37 295.06C1117.47 295.06 1118.42 295.427 1119.23 296.16C1120.11 296.82 1120.55 297.663 1120.55 298.69C1120.55 300.083 1120.03 301.513 1119.01 302.98C1116.88 306.427 1114.24 308.993 1111.09 310.68C1107.93 312.293 1104.01 313.1 1099.32 313.1C1094.11 313.1 1089.53 311.89 1085.57 309.47C1081.68 307.05 1078.64 303.64 1076.44 299.24C1074.31 294.84 1073.25 289.78 1073.25 284.06C1073.25 278.413 1074.31 273.463 1076.44 269.21C1078.56 264.957 1081.57 261.693 1085.46 259.42C1089.34 257.073 1093.85 255.9 1098.99 255.9C1106.1 255.9 1111.82 258.173 1116.15 262.72C1120.55 267.267 1122.75 273.61 1122.75 281.75ZM1098.77 264.04C1094.44 264.04 1090.96 265.36 1088.32 268C1085.75 270.567 1084.17 274.307 1083.59 279.22H1112.74C1112.66 269.1 1108.01 264.04 1098.77 264.04ZM1136.03 312C1133.61 312 1132.4 311.01 1132.4 309.03V306.28C1132.4 304.3 1133.61 303.31 1136.03 303.31H1138.89V239.29H1136.03C1133.61 239.29 1132.4 238.3 1132.4 236.32V233.57C1132.4 231.59 1133.61 230.6 1136.03 230.6H1144.72C1145.82 230.6 1146.73 231.003 1147.47 231.81C1148.27 232.543 1148.68 233.497 1148.68 234.67V303.31H1151.54C1153.96 303.31 1155.17 304.3 1155.17 306.28V309.03C1155.17 311.01 1153.96 312 1151.54 312H1136.03ZM1191.06 313.1C1185.85 313.1 1181.27 311.963 1177.31 309.69C1173.35 307.343 1170.3 304.043 1168.18 299.79C1166.05 295.537 1164.99 290.623 1164.99 285.05C1164.99 279.257 1166.09 274.16 1168.29 269.76C1170.49 265.36 1173.57 261.95 1177.53 259.53C1181.49 257.11 1186.11 255.9 1191.39 255.9C1196.59 255.9 1201.18 257.073 1205.14 259.42C1209.1 261.693 1212.14 264.957 1214.27 269.21C1216.39 273.463 1217.46 278.377 1217.46 283.95C1217.46 289.743 1216.36 294.84 1214.16 299.24C1211.96 303.64 1208.88 307.05 1204.92 309.47C1200.96 311.89 1196.34 313.1 1191.06 313.1ZM1191.06 304.52C1196.26 304.52 1200.3 302.723 1203.16 299.13C1206.02 295.537 1207.45 290.513 1207.45 284.06C1207.45 277.753 1206.05 272.913 1203.27 269.54C1200.48 266.167 1196.52 264.48 1191.39 264.48C1186.25 264.48 1182.22 266.313 1179.29 269.98C1176.43 273.573 1175 278.56 1175 284.94C1175 291.173 1176.39 296.013 1179.18 299.46C1181.96 302.833 1185.92 304.52 1191.06 304.52ZM1261.46 255.9C1265.93 255.9 1269.82 257.037 1273.12 259.31C1276.42 261.583 1278.99 264.847 1280.82 269.1C1282.65 273.28 1283.57 278.193 1283.57 283.84C1283.57 292.933 1281.41 300.083 1277.08 305.29C1272.75 310.497 1266.85 313.1 1259.37 313.1C1256.36 313.1 1253.47 312.403 1250.68 311.01C1247.89 309.543 1245.51 307.49 1243.53 304.85V328.61H1246.39C1248.81 328.61 1250.02 329.6 1250.02 331.58V334.33C1250.02 336.31 1248.81 337.3 1246.39 337.3H1230.88C1228.46 337.3 1227.25 336.31 1227.25 334.33V331.58C1227.25 329.6 1228.46 328.61 1230.88 328.61H1233.74V265.69H1230.88C1228.46 265.69 1227.25 264.7 1227.25 262.72V259.97C1227.25 257.99 1228.46 257 1230.88 257H1239.68C1240.78 257 1241.7 257.403 1242.43 258.21C1243.16 258.943 1243.53 259.897 1243.53 261.07V268C1244.85 264.553 1247.2 261.693 1250.57 259.42C1254.02 257.073 1257.65 255.9 1261.46 255.9ZM1258.38 304.52C1263.29 304.52 1267.03 302.723 1269.6 299.13C1272.24 295.463 1273.56 290.183 1273.56 283.29C1273.56 277.35 1272.31 272.73 1269.82 269.43C1267.33 266.13 1263.81 264.48 1259.26 264.48C1256.4 264.48 1253.76 265.287 1251.34 266.9C1248.92 268.44 1247.01 270.567 1245.62 273.28C1244.23 275.993 1243.53 278.963 1243.53 282.19V296.38C1245.51 299.02 1247.78 301.037 1250.35 302.43C1252.92 303.823 1255.59 304.52 1258.38 304.52ZM1344.68 281.75C1344.68 282.117 1344.57 283.73 1344.35 286.59H1305.3C1305.67 292.163 1307.28 296.563 1310.14 299.79C1313 302.943 1316.81 304.52 1321.58 304.52C1324.81 304.52 1327.37 304.007 1329.28 302.98C1331.19 301.953 1332.98 300.12 1334.67 297.48C1335.26 296.6 1335.81 295.977 1336.32 295.61C1336.91 295.243 1337.57 295.06 1338.3 295.06C1339.4 295.06 1340.35 295.427 1341.16 296.16C1342.04 296.82 1342.48 297.663 1342.48 298.69C1342.48 300.083 1341.97 301.513 1340.94 302.98C1338.81 306.427 1336.17 308.993 1333.02 310.68C1329.87 312.293 1325.94 313.1 1321.25 313.1C1316.04 313.1 1311.46 311.89 1307.5 309.47C1303.61 307.05 1300.57 303.64 1298.37 299.24C1296.24 294.84 1295.18 289.78 1295.18 284.06C1295.18 278.413 1296.24 273.463 1298.37 269.21C1300.5 264.957 1303.5 261.693 1307.39 259.42C1311.28 257.073 1315.79 255.9 1320.92 255.9C1328.03 255.9 1333.75 258.173 1338.08 262.72C1342.48 267.267 1344.68 273.61 1344.68 281.75ZM1320.7 264.04C1316.37 264.04 1312.89 265.36 1310.25 268C1307.68 270.567 1306.11 274.307 1305.52 279.22H1334.67C1334.6 269.1 1329.94 264.04 1320.7 264.04ZM1388.43 255.9C1391.37 255.9 1393.6 256.597 1395.14 257.99C1396.68 259.31 1397.45 261.18 1397.45 263.6C1397.45 265.507 1396.83 267.12 1395.58 268.44C1394.34 269.687 1392.72 270.31 1390.74 270.31C1388.98 270.31 1387.52 269.797 1386.34 268.77C1385.17 267.67 1384.51 266.277 1384.36 264.59C1382.09 264.81 1380 265.91 1378.09 267.89C1376.19 269.797 1374.65 272.29 1373.47 275.37C1372.37 278.377 1371.82 281.603 1371.82 285.05V303.31H1376.99C1379.41 303.31 1380.62 304.3 1380.62 306.28V309.03C1380.62 311.01 1379.41 312 1376.99 312H1359.06C1356.72 312 1355.54 311.01 1355.54 309.03V306.28C1355.54 304.3 1356.72 303.31 1359.06 303.31H1361.92V265.69H1359.06C1356.72 265.69 1355.54 264.7 1355.54 262.72V259.97C1355.54 257.99 1356.72 257 1359.06 257H1367.75C1368.93 257 1369.88 257.403 1370.61 258.21C1371.42 258.943 1371.82 259.897 1371.82 261.07V270.75C1373.14 266.203 1375.27 262.61 1378.2 259.97C1381.21 257.257 1384.62 255.9 1388.43 255.9Z" fill="#67A8FF"/>
<path d="M414.42 126.15C414.42 126.757 414.117 127.223 413.51 127.55L394.33 134.83L413.51 142.11C413.743 142.203 413.953 142.39 414.14 142.67C414.327 142.903 414.42 143.16 414.42 143.44V146.1C414.42 146.613 414.257 147.033 413.93 147.36C413.65 147.64 413.277 147.78 412.81 147.78C412.39 147.78 411.993 147.663 411.62 147.43L385.44 137.28C384.647 136.953 384.25 136.323 384.25 135.39V134.2C384.25 133.313 384.647 132.707 385.44 132.38L411.62 122.23C411.993 121.997 412.39 121.88 412.81 121.88C413.277 121.88 413.65 122.043 413.93 122.37C414.257 122.65 414.42 123.023 414.42 123.49V126.15ZM542.237 132.38C543.031 132.707 543.427 133.313 543.427 134.2V135.39C543.427 136.323 543.031 136.953 542.237 137.28L516.057 147.43C515.591 147.663 515.194 147.78 514.867 147.78C514.401 147.78 514.004 147.64 513.677 147.36C513.397 147.033 513.257 146.613 513.257 146.1V143.44C513.257 143.16 513.351 142.903 513.537 142.67C513.724 142.39 513.934 142.203 514.167 142.11L533.347 134.83L514.167 127.55C513.561 127.223 513.257 126.757 513.257 126.15V123.49C513.257 123.023 513.397 122.65 513.677 122.37C514.004 122.043 514.401 121.88 514.867 121.88C515.194 121.88 515.591 121.997 516.057 122.23L542.237 132.38ZM1186.54 126.15C1186.54 126.757 1186.24 127.223 1185.63 127.55L1166.45 134.83L1185.63 142.11C1185.86 142.203 1186.07 142.39 1186.26 142.67C1186.45 142.903 1186.54 143.16 1186.54 143.44V146.1C1186.54 146.613 1186.38 147.033 1186.05 147.36C1185.77 147.64 1185.4 147.78 1184.93 147.78C1184.51 147.78 1184.11 147.663 1183.74 147.43L1157.56 137.28C1156.77 136.953 1156.37 136.323 1156.37 135.39V134.2C1156.37 133.313 1156.77 132.707 1157.56 132.38L1183.74 122.23C1184.11 121.997 1184.51 121.88 1184.93 121.88C1185.4 121.88 1185.77 122.043 1186.05 122.37C1186.38 122.65 1186.54 123.023 1186.54 123.49V126.15ZM1195.89 174.1C1195.01 174.1 1194.56 173.703 1194.56 172.91C1194.56 172.583 1194.61 172.233 1194.7 171.86L1214.58 108.23C1215 106.877 1215.68 106.2 1216.61 106.2H1219.62C1220.51 106.2 1220.95 106.597 1220.95 107.39C1220.95 107.81 1220.88 108.16 1220.74 108.44L1200.93 172.07C1200.51 173.423 1199.84 174.1 1198.9 174.1H1195.89ZM1343.68 132.38C1344.48 132.707 1344.87 133.313 1344.87 134.2V135.39C1344.87 136.323 1344.48 136.953 1343.68 137.28L1317.5 147.43C1317.04 147.663 1316.64 147.78 1316.31 147.78C1315.85 147.78 1315.45 147.64 1315.12 147.36C1314.84 147.033 1314.7 146.613 1314.7 146.1V143.44C1314.7 143.16 1314.8 142.903 1314.98 142.67C1315.17 142.39 1315.38 142.203 1315.61 142.11L1334.79 134.83L1315.61 127.55C1315.01 127.223 1314.7 126.757 1314.7 126.15V123.49C1314.7 123.023 1314.84 122.65 1315.12 122.37C1315.45 122.043 1315.85 121.88 1316.31 121.88C1316.64 121.88 1317.04 121.997 1317.5 122.23L1343.68 132.38Z" fill="#A9A9A9"/>
<path d="M459.333 152.47C460.826 152.47 461.573 153.1 461.573 154.36V156.11C461.573 157.37 460.826 158 459.333 158H449.393C447.899 158 447.153 157.37 447.153 156.11V154.36C447.153 153.1 447.899 152.47 449.393 152.47H451.213V138.96C451.213 134.9 450.676 132.03 449.603 130.35C448.576 128.623 446.826 127.76 444.353 127.76C442.626 127.76 440.946 128.343 439.313 129.51C437.726 130.63 436.419 132.1 435.393 133.92C434.413 135.74 433.923 137.653 433.923 139.66V152.47H435.743C437.283 152.47 438.053 153.1 438.053 154.36V156.11C438.053 157.37 437.283 158 435.743 158H425.873C424.333 158 423.563 157.37 423.563 156.11V154.36C423.563 153.1 424.333 152.47 425.873 152.47H427.693V111.73H425.873C424.333 111.73 423.563 111.1 423.563 109.84V108.09C423.563 106.83 424.333 106.2 425.873 106.2H431.403C432.103 106.2 432.686 106.457 433.153 106.97C433.666 107.437 433.923 108.043 433.923 108.79V130.84C434.949 128.413 436.583 126.383 438.823 124.75C441.063 123.117 443.396 122.3 445.823 122.3C449.696 122.3 452.613 123.63 454.573 126.29C456.533 128.903 457.513 132.8 457.513 137.98V152.47H459.333ZM495.332 131.82C497.852 132.8 499.766 134.317 501.072 136.37C502.379 138.377 503.032 140.85 503.032 143.79C503.032 146.637 502.332 149.18 500.932 151.42C499.579 153.66 497.572 155.433 494.912 156.74C492.252 158.047 489.079 158.7 485.392 158.7C482.219 158.7 479.302 158.187 476.642 157.16C474.029 156.133 471.929 154.663 470.342 152.75C468.802 150.837 468.032 148.62 468.032 146.1C468.032 144.607 468.406 143.417 469.152 142.53C469.946 141.643 471.019 141.2 472.372 141.2C473.539 141.2 474.496 141.573 475.242 142.32C476.036 143.067 476.432 144 476.432 145.12C476.432 146.427 475.966 147.5 475.032 148.34C475.732 149.927 477.016 151.14 478.882 151.98C480.796 152.773 483.059 153.17 485.672 153.17C489.172 153.17 491.856 152.307 493.722 150.58C495.636 148.807 496.592 146.473 496.592 143.58C496.592 138.027 492.882 135.25 485.462 135.25H481.892C481.286 135.25 480.796 135.063 480.422 134.69C480.049 134.27 479.862 133.78 479.862 133.22V131.75C479.862 131.19 480.049 130.723 480.422 130.35C480.796 129.93 481.286 129.72 481.892 129.72H484.482C487.982 129.72 490.596 129.183 492.322 128.11C494.049 126.99 494.912 125.007 494.912 122.16C494.912 119.92 494.096 117.983 492.462 116.35C490.876 114.67 488.309 113.83 484.762 113.83C482.429 113.83 480.469 114.25 478.882 115.09C477.342 115.93 476.269 117.12 475.662 118.66C476.082 119.033 476.409 119.5 476.642 120.06C476.922 120.62 477.062 121.227 477.062 121.88C477.062 123 476.666 123.933 475.872 124.68C475.126 125.427 474.169 125.8 473.002 125.8C471.649 125.8 470.576 125.357 469.782 124.47C469.036 123.583 468.662 122.393 468.662 120.9C468.662 118.52 469.339 116.373 470.692 114.46C472.092 112.547 474.006 111.053 476.432 109.98C478.906 108.86 481.706 108.3 484.832 108.3C488.472 108.3 491.529 108.93 494.002 110.19C496.476 111.403 498.319 113.013 499.532 115.02C500.746 116.98 501.352 119.103 501.352 121.39C501.352 126.01 499.346 129.487 495.332 131.82ZM1260.78 152.47C1262.27 152.47 1263.02 153.1 1263.02 154.36V156.11C1263.02 157.37 1262.27 158 1260.78 158H1250.84C1249.34 158 1248.6 157.37 1248.6 156.11V154.36C1248.6 153.1 1249.34 152.47 1250.84 152.47H1252.66V138.96C1252.66 134.9 1252.12 132.03 1251.05 130.35C1250.02 128.623 1248.27 127.76 1245.8 127.76C1244.07 127.76 1242.39 128.343 1240.76 129.51C1239.17 130.63 1237.86 132.1 1236.84 133.92C1235.86 135.74 1235.37 137.653 1235.37 139.66V152.47H1237.19C1238.73 152.47 1239.5 153.1 1239.5 154.36V156.11C1239.5 157.37 1238.73 158 1237.19 158H1227.32C1225.78 158 1225.01 157.37 1225.01 156.11V154.36C1225.01 153.1 1225.78 152.47 1227.32 152.47H1229.14V111.73H1227.32C1225.78 111.73 1225.01 111.1 1225.01 109.84V108.09C1225.01 106.83 1225.78 106.2 1227.32 106.2H1232.85C1233.55 106.2 1234.13 106.457 1234.6 106.97C1235.11 107.437 1235.37 108.043 1235.37 108.79V130.84C1236.39 128.413 1238.03 126.383 1240.27 124.75C1242.51 123.117 1244.84 122.3 1247.27 122.3C1251.14 122.3 1254.06 123.63 1256.02 126.29C1257.98 128.903 1258.96 132.8 1258.96 137.98V152.47H1260.78ZM1296.78 131.82C1299.3 132.8 1301.21 134.317 1302.52 136.37C1303.82 138.377 1304.48 140.85 1304.48 143.79C1304.48 146.637 1303.78 149.18 1302.38 151.42C1301.02 153.66 1299.02 155.433 1296.36 156.74C1293.7 158.047 1290.52 158.7 1286.84 158.7C1283.66 158.7 1280.75 158.187 1278.09 157.16C1275.47 156.133 1273.37 154.663 1271.79 152.75C1270.25 150.837 1269.48 148.62 1269.48 146.1C1269.48 144.607 1269.85 143.417 1270.6 142.53C1271.39 141.643 1272.46 141.2 1273.82 141.2C1274.98 141.2 1275.94 141.573 1276.69 142.32C1277.48 143.067 1277.88 144 1277.88 145.12C1277.88 146.427 1277.41 147.5 1276.48 148.34C1277.18 149.927 1278.46 151.14 1280.33 151.98C1282.24 152.773 1284.5 153.17 1287.12 153.17C1290.62 153.17 1293.3 152.307 1295.17 150.58C1297.08 148.807 1298.04 146.473 1298.04 143.58C1298.04 138.027 1294.33 135.25 1286.91 135.25H1283.34C1282.73 135.25 1282.24 135.063 1281.87 134.69C1281.49 134.27 1281.31 133.78 1281.31 133.22V131.75C1281.31 131.19 1281.49 130.723 1281.87 130.35C1282.24 129.93 1282.73 129.72 1283.34 129.72H1285.93C1289.43 129.72 1292.04 129.183 1293.77 128.11C1295.49 126.99 1296.36 125.007 1296.36 122.16C1296.36 119.92 1295.54 117.983 1293.91 116.35C1292.32 114.67 1289.75 113.83 1286.21 113.83C1283.87 113.83 1281.91 114.25 1280.33 115.09C1278.79 115.93 1277.71 117.12 1277.11 118.66C1277.53 119.033 1277.85 119.5 1278.09 120.06C1278.37 120.62 1278.51 121.227 1278.51 121.88C1278.51 123 1278.11 123.933 1277.32 124.68C1276.57 125.427 1275.61 125.8 1274.45 125.8C1273.09 125.8 1272.02 125.357 1271.23 124.47C1270.48 123.583 1270.11 122.393 1270.11 120.9C1270.11 118.52 1270.78 116.373 1272.14 114.46C1273.54 112.547 1275.45 111.053 1277.88 109.98C1280.35 108.86 1283.15 108.3 1286.28 108.3C1289.92 108.3 1292.97 108.93 1295.45 110.19C1297.92 111.403 1299.76 113.013 1300.98 115.02C1302.19 116.98 1302.8 119.103 1302.8 121.39C1302.8 126.01 1300.79 129.487 1296.78 131.82Z" fill="#FFA3A3"/>
<path d="M613.219 114.53V152.47H615.039C616.579 152.47 617.349 153.1 617.349 154.36V156.11C617.349 157.37 616.579 158 615.039 158H605.099C603.559 158 602.789 157.37 602.789 156.11V154.36C602.789 153.1 603.559 152.47 605.099 152.47H606.919V135.53H583.399V152.47H585.219C586.759 152.47 587.529 153.1 587.529 154.36V156.11C587.529 157.37 586.759 158 585.219 158H575.279C573.739 158 572.969 157.37 572.969 156.11V154.36C572.969 153.1 573.739 152.47 575.279 152.47H577.099V114.53H575.279C573.739 114.53 572.969 113.9 572.969 112.64V110.89C572.969 109.63 573.739 109 575.279 109H585.219C586.759 109 587.529 109.63 587.529 110.89V112.64C587.529 113.9 586.759 114.53 585.219 114.53H583.399V130H606.919V114.53H605.099C603.559 114.53 602.789 113.9 602.789 112.64V110.89C602.789 109.63 603.559 109 605.099 109H615.039C616.579 109 617.349 109.63 617.349 110.89V112.64C617.349 113.9 616.579 114.53 615.039 114.53H613.219ZM656.611 138.75C656.611 138.983 656.541 140.01 656.401 141.83H631.551C631.784 145.377 632.811 148.177 634.631 150.23C636.451 152.237 638.877 153.24 641.911 153.24C643.964 153.24 645.597 152.913 646.811 152.26C648.024 151.607 649.167 150.44 650.241 148.76C650.614 148.2 650.964 147.803 651.291 147.57C651.664 147.337 652.084 147.22 652.551 147.22C653.251 147.22 653.857 147.453 654.371 147.92C654.931 148.34 655.211 148.877 655.211 149.53C655.211 150.417 654.884 151.327 654.231 152.26C652.877 154.453 651.197 156.087 649.191 157.16C647.184 158.187 644.687 158.7 641.701 158.7C638.387 158.7 635.471 157.93 632.951 156.39C630.477 154.85 628.541 152.68 627.141 149.88C625.787 147.08 625.111 143.86 625.111 140.22C625.111 136.627 625.787 133.477 627.141 130.77C628.494 128.063 630.407 125.987 632.881 124.54C635.354 123.047 638.224 122.3 641.491 122.3C646.017 122.3 649.657 123.747 652.411 126.64C655.211 129.533 656.611 133.57 656.611 138.75ZM641.351 127.48C638.597 127.48 636.381 128.32 634.701 130C633.067 131.633 632.064 134.013 631.691 137.14H650.241C650.194 130.7 647.231 127.48 641.351 127.48ZM665.062 158C663.522 158 662.752 157.37 662.752 156.11V154.36C662.752 153.1 663.522 152.47 665.062 152.47H666.882V111.73H665.062C663.522 111.73 662.752 111.1 662.752 109.84V108.09C662.752 106.83 663.522 106.2 665.062 106.2H670.592C671.292 106.2 671.875 106.457 672.342 106.97C672.855 107.437 673.112 108.043 673.112 108.79V152.47H674.932C676.472 152.47 677.242 153.1 677.242 154.36V156.11C677.242 157.37 676.472 158 674.932 158H665.062ZM684.75 158C683.21 158 682.44 157.37 682.44 156.11V154.36C682.44 153.1 683.21 152.47 684.75 152.47H686.57V111.73H684.75C683.21 111.73 682.44 111.1 682.44 109.84V108.09C682.44 106.83 683.21 106.2 684.75 106.2H690.28C690.98 106.2 691.563 106.457 692.03 106.97C692.543 107.437 692.8 108.043 692.8 108.79V152.47H694.62C696.16 152.47 696.93 153.1 696.93 154.36V156.11C696.93 157.37 696.16 158 694.62 158H684.75ZM719.767 158.7C716.454 158.7 713.537 157.977 711.017 156.53C708.497 155.037 706.56 152.937 705.207 150.23C703.854 147.523 703.177 144.397 703.177 140.85C703.177 137.163 703.877 133.92 705.277 131.12C706.677 128.32 708.637 126.15 711.157 124.61C713.677 123.07 716.617 122.3 719.977 122.3C723.29 122.3 726.207 123.047 728.727 124.54C731.247 125.987 733.184 128.063 734.537 130.77C735.89 133.477 736.567 136.603 736.567 140.15C736.567 143.837 735.867 147.08 734.467 149.88C733.067 152.68 731.107 154.85 728.587 156.39C726.067 157.93 723.127 158.7 719.767 158.7ZM719.767 153.24C723.08 153.24 725.647 152.097 727.467 149.81C729.287 147.523 730.197 144.327 730.197 140.22C730.197 136.207 729.31 133.127 727.537 130.98C725.764 128.833 723.244 127.76 719.977 127.76C716.71 127.76 714.144 128.927 712.277 131.26C710.457 133.547 709.547 136.72 709.547 140.78C709.547 144.747 710.434 147.827 712.207 150.02C713.98 152.167 716.5 153.24 719.767 153.24ZM748.681 170.67C748.261 170.67 747.864 170.507 747.491 170.18C747.118 169.853 746.931 169.457 746.931 168.99C746.931 168.663 747.118 168.243 747.491 167.73C750.058 164.37 751.341 161.71 751.341 159.75C751.341 159.33 751.271 159.027 751.131 158.84C751.038 158.653 750.804 158.537 750.431 158.49C747.911 157.883 746.651 156.297 746.651 153.73C746.651 152.283 747.118 151.117 748.051 150.23C749.031 149.297 750.244 148.83 751.691 148.83C753.371 148.83 754.678 149.413 755.611 150.58C756.544 151.7 757.011 153.217 757.011 155.13C757.011 159.843 754.841 164.65 750.501 169.55C749.941 170.297 749.334 170.67 748.681 170.67ZM789.244 158C787.704 158 786.934 157.37 786.934 156.11V154.36C786.934 153.1 787.704 152.47 789.244 152.47H791.064V114.53H789.244C787.704 114.53 786.934 113.9 786.934 112.64V110.89C786.934 109.63 787.704 109 789.244 109H799.184C800.724 109 801.494 109.63 801.494 110.89V112.64C801.494 113.9 800.724 114.53 799.184 114.53H797.364V152.47H799.184C800.724 152.47 801.494 153.1 801.494 154.36V156.11C801.494 157.37 800.724 158 799.184 158H789.244ZM812.976 130.21C812.509 130.21 812.089 130.047 811.716 129.72C811.389 129.347 811.226 128.927 811.226 128.46C811.226 128.04 811.389 127.643 811.716 127.27C814.329 123.863 815.636 121.18 815.636 119.22C815.636 118.847 815.566 118.567 815.426 118.38C815.286 118.147 815.053 118.007 814.726 117.96C812.206 117.353 810.946 115.767 810.946 113.2C810.946 111.753 811.413 110.587 812.346 109.7C813.279 108.767 814.469 108.3 815.916 108.3C817.596 108.3 818.903 108.883 819.836 110.05C820.769 111.17 821.236 112.687 821.236 114.6C821.236 119.36 819.066 124.19 814.726 129.09C814.166 129.837 813.583 130.21 812.976 130.21ZM886.117 152.47C887.611 152.47 888.357 153.1 888.357 154.36V156.11C888.357 157.37 887.611 158 886.117 158H876.387C874.847 158 874.077 157.37 874.077 156.11V154.36C874.077 153.1 874.847 152.47 876.387 152.47H877.997V138.96C877.997 136.067 877.811 133.827 877.437 132.24C877.064 130.653 876.434 129.51 875.547 128.81C874.707 128.11 873.494 127.76 871.907 127.76C870.274 127.76 868.711 128.32 867.217 129.44C865.724 130.56 864.534 132.03 863.647 133.85C862.761 135.67 862.317 137.607 862.317 139.66V152.47H863.927C865.467 152.47 866.237 153.1 866.237 154.36V156.11C866.237 157.37 865.467 158 863.927 158H854.407C852.867 158 852.097 157.37 852.097 156.11V154.36C852.097 153.1 852.867 152.47 854.407 152.47H856.017V138.96C856.017 136.067 855.831 133.827 855.457 132.24C855.084 130.653 854.454 129.51 853.567 128.81C852.727 128.11 851.514 127.76 849.927 127.76C848.294 127.76 846.731 128.32 845.237 129.44C843.791 130.56 842.601 132.03 841.667 133.85C840.781 135.67 840.337 137.607 840.337 139.66V152.47H841.947C843.487 152.47 844.257 153.1 844.257 154.36V156.11C844.257 157.37 843.487 158 841.947 158H832.217C830.724 158 829.977 157.37 829.977 156.11V154.36C829.977 153.1 830.724 152.47 832.217 152.47H834.037V128.53H832.217C830.724 128.53 829.977 127.9 829.977 126.64V124.89C829.977 123.63 830.724 123 832.217 123H837.747C838.494 123 839.101 123.257 839.567 123.77C840.081 124.237 840.337 124.843 840.337 125.59V130.77C841.317 128.297 842.834 126.267 844.887 124.68C846.987 123.093 849.157 122.3 851.397 122.3C854.197 122.3 856.437 123.023 858.117 124.47C859.844 125.917 861.034 128.133 861.687 131.12C863.041 128.32 864.744 126.15 866.797 124.61C868.851 123.07 871.044 122.3 873.377 122.3C877.064 122.3 879.794 123.583 881.567 126.15C883.387 128.717 884.297 132.66 884.297 137.98V152.47H886.117ZM955.239 152.47C956.779 152.47 957.549 153.1 957.549 154.36V156.11C957.549 157.37 956.779 158 955.239 158H942.429C940.889 158 940.119 157.37 940.119 156.11V154.36C940.119 153.1 940.889 152.47 942.429 152.47H943.619L924.649 134.06V152.47H926.469C928.009 152.47 928.779 153.1 928.779 154.36V156.11C928.779 157.37 928.009 158 926.469 158H916.529C914.989 158 914.219 157.37 914.219 156.11V154.36C914.219 153.1 914.989 152.47 916.529 152.47H918.349V114.53H916.529C914.989 114.53 914.219 113.9 914.219 112.64V110.89C914.219 109.63 914.989 109 916.529 109H926.469C928.009 109 928.779 109.63 928.779 110.89V112.64C928.779 113.9 928.009 114.53 926.469 114.53H924.649V131.82L943.759 114.53H942.359C940.866 114.53 940.119 113.9 940.119 112.64V110.89C940.119 110.237 940.259 109.77 940.539 109.49C940.866 109.163 941.379 109 942.079 109H954.189C955.682 109 956.429 109.63 956.429 110.89V112.64C956.429 113.9 955.682 114.53 954.189 114.53H951.529L931.369 132.45L952.089 152.47H955.239ZM993.321 152.47C994.814 152.47 995.561 153.1 995.561 154.36V156.11C995.561 157.37 994.814 158 993.321 158H987.721C987.021 158 986.414 157.767 985.901 157.3C985.434 156.787 985.201 156.157 985.201 155.41V151C984.314 153.193 982.774 155.037 980.581 156.53C978.434 157.977 976.148 158.7 973.721 158.7C970.454 158.7 967.818 157.767 965.811 155.9C963.804 153.987 962.801 151.467 962.801 148.34C962.801 145.073 963.898 142.553 966.091 140.78C968.331 139.007 971.504 138.12 975.611 138.12C978.738 138.12 981.934 138.493 985.201 139.24V136.09C985.201 133.197 984.524 131.05 983.171 129.65C981.818 128.25 979.718 127.55 976.871 127.55C974.678 127.55 973.044 127.97 971.971 128.81C972.298 129.37 972.461 129.977 972.461 130.63C972.461 131.703 972.088 132.613 971.341 133.36C970.594 134.107 969.684 134.48 968.611 134.48C967.351 134.48 966.348 134.083 965.601 133.29C964.854 132.497 964.481 131.423 964.481 130.07C964.481 127.783 965.671 125.917 968.051 124.47C970.431 123.023 973.464 122.3 977.151 122.3C981.771 122.3 985.294 123.537 987.721 126.01C990.194 128.483 991.431 131.983 991.431 136.51V152.47H993.321ZM975.191 153.59C976.964 153.59 978.598 153.123 980.091 152.19C981.631 151.21 982.844 149.927 983.731 148.34C984.664 146.707 985.154 144.933 985.201 143.02C983.101 142.693 980.208 142.53 976.521 142.53C971.481 142.53 968.961 144.397 968.961 148.13C968.961 149.857 969.521 151.21 970.641 152.19C971.761 153.123 973.278 153.59 975.191 153.59ZM1022.15 122.3C1024.01 122.3 1025.44 122.743 1026.42 123.63C1027.4 124.47 1027.89 125.66 1027.89 127.2C1027.89 128.413 1027.49 129.44 1026.7 130.28C1025.9 131.073 1024.88 131.47 1023.62 131.47C1022.5 131.47 1021.56 131.143 1020.82 130.49C1020.07 129.79 1019.65 128.903 1019.56 127.83C1018.11 127.97 1016.78 128.67 1015.57 129.93C1014.35 131.143 1013.37 132.73 1012.63 134.69C1011.93 136.603 1011.58 138.657 1011.58 140.85V152.47H1014.87C1016.41 152.47 1017.18 153.1 1017.18 154.36V156.11C1017.18 157.37 1016.41 158 1014.87 158H1003.46C1001.96 158 1001.22 157.37 1001.22 156.11V154.36C1001.22 153.1 1001.96 152.47 1003.46 152.47H1005.28V128.53H1003.46C1001.96 128.53 1001.22 127.9 1001.22 126.64V124.89C1001.22 123.63 1001.96 123 1003.46 123H1008.99C1009.73 123 1010.34 123.257 1010.81 123.77C1011.32 124.237 1011.58 124.843 1011.58 125.59V131.75C1012.42 128.857 1013.77 126.57 1015.64 124.89C1017.55 123.163 1019.72 122.3 1022.15 122.3ZM1039.23 116.21C1037.92 116.21 1036.83 115.767 1035.94 114.88C1035.05 113.993 1034.61 112.897 1034.61 111.59C1034.61 110.283 1035.05 109.21 1035.94 108.37C1036.83 107.483 1037.92 107.04 1039.23 107.04C1040.54 107.04 1041.61 107.483 1042.45 108.37C1043.34 109.21 1043.78 110.283 1043.78 111.59C1043.78 112.897 1043.34 113.993 1042.45 114.88C1041.61 115.767 1040.54 116.21 1039.23 116.21ZM1035.38 158C1033.89 158 1033.14 157.37 1033.14 156.11V154.36C1033.14 153.1 1033.89 152.47 1035.38 152.47H1037.2V128.53H1035.38C1033.89 128.53 1033.14 127.9 1033.14 126.64V124.89C1033.14 123.63 1033.89 123 1035.38 123H1040.91C1041.66 123 1042.26 123.257 1042.73 123.77C1043.24 124.237 1043.5 124.843 1043.5 125.59V152.47H1045.32C1046.86 152.47 1047.63 153.1 1047.63 154.36V156.11C1047.63 157.37 1046.86 158 1045.32 158H1035.38ZM1088.86 152.47C1090.36 152.47 1091.1 153.1 1091.1 154.36V156.11C1091.1 157.37 1090.36 158 1088.86 158H1079.13C1077.59 158 1076.82 157.37 1076.82 156.11V154.36C1076.82 153.1 1077.59 152.47 1079.13 152.47H1080.74V138.96C1080.74 134.807 1080.23 131.913 1079.2 130.28C1078.22 128.6 1076.5 127.76 1074.02 127.76C1072.3 127.76 1070.64 128.343 1069.05 129.51C1067.51 130.63 1066.25 132.1 1065.27 133.92C1064.34 135.74 1063.87 137.653 1063.87 139.66V152.47H1065.48C1067.02 152.47 1067.79 153.1 1067.79 154.36V156.11C1067.79 157.37 1067.02 158 1065.48 158H1055.75C1054.26 158 1053.51 157.37 1053.51 156.11V154.36C1053.51 153.1 1054.26 152.47 1055.75 152.47H1057.57V128.53H1055.75C1054.26 128.53 1053.51 127.9 1053.51 126.64V124.89C1053.51 123.63 1054.26 123 1055.75 123H1061.28C1062.03 123 1062.64 123.257 1063.1 123.77C1063.62 124.237 1063.87 124.843 1063.87 125.59V130.84C1064.85 128.367 1066.44 126.337 1068.63 124.75C1070.87 123.117 1073.18 122.3 1075.56 122.3C1083.22 122.3 1087.04 127.527 1087.04 137.98V152.47H1088.86ZM1127.37 152.47C1128.87 152.47 1129.61 153.1 1129.61 154.36V156.11C1129.61 157.37 1128.87 158 1127.37 158H1121.77C1121.07 158 1120.47 157.767 1119.95 157.3C1119.49 156.787 1119.25 156.157 1119.25 155.41V151C1118.37 153.193 1116.83 155.037 1114.63 156.53C1112.49 157.977 1110.2 158.7 1107.77 158.7C1104.51 158.7 1101.87 157.767 1099.86 155.9C1097.86 153.987 1096.85 151.467 1096.85 148.34C1096.85 145.073 1097.95 142.553 1100.14 140.78C1102.38 139.007 1105.56 138.12 1109.66 138.12C1112.79 138.12 1115.99 138.493 1119.25 139.24V136.09C1119.25 133.197 1118.58 131.05 1117.22 129.65C1115.87 128.25 1113.77 127.55 1110.92 127.55C1108.73 127.55 1107.1 127.97 1106.02 128.81C1106.35 129.37 1106.51 129.977 1106.51 130.63C1106.51 131.703 1106.14 132.613 1105.39 133.36C1104.65 134.107 1103.74 134.48 1102.66 134.48C1101.4 134.48 1100.4 134.083 1099.65 133.29C1098.91 132.497 1098.53 131.423 1098.53 130.07C1098.53 127.783 1099.72 125.917 1102.1 124.47C1104.48 123.023 1107.52 122.3 1111.2 122.3C1115.82 122.3 1119.35 123.537 1121.77 126.01C1124.25 128.483 1125.48 131.983 1125.48 136.51V152.47H1127.37ZM1109.24 153.59C1111.02 153.59 1112.65 153.123 1114.14 152.19C1115.68 151.21 1116.9 149.927 1117.78 148.34C1118.72 146.707 1119.21 144.933 1119.25 143.02C1117.15 142.693 1114.26 142.53 1110.57 142.53C1105.53 142.53 1103.01 144.397 1103.01 148.13C1103.01 149.857 1103.57 151.21 1104.69 152.19C1105.81 153.123 1107.33 153.59 1109.24 153.59Z" fill="#C2A5F9"/>
</svg>
