<svg width="674" height="44" viewBox="0 0 674 44" fill="none" xmlns="http://www.w3.org/2000/svg">
<path d="M19.5123 7.565L0.0972852 17.025V20.38L19.4023 31.105L21.2173 27.585L5.43229 19.06V18.73L21.2173 11.085L19.5123 7.565ZM90.8787 7.565L110.294 17.025V20.38L90.9887 31.105L89.1737 27.585L104.959 19.06V18.73L89.1737 11.085L90.8787 7.565ZM562.856 7.565L543.441 17.025V20.38L562.746 31.105L564.561 27.585L548.776 19.06V18.73L564.561 11.085L562.856 7.565ZM584.517 3.605H588.532L570.547 43.205H566.477L584.517 3.605ZM654.498 7.565L673.913 17.025V20.38L654.608 31.105L652.793 27.585L668.578 19.06V18.73L652.793 11.085L654.498 7.565Z" fill="#C4C4C4"/>
<path d="M25.7174 36V32.59H30.3374V5.475L25.1124 3.66L26.2674 0.249998L34.6274 3.11V13.89C37.0107 12.35 39.4124 11.58 41.8324 11.58C45.2057 11.58 47.6807 12.3317 49.2574 13.835C50.8707 15.3383 51.6774 17.685 51.6774 20.875V32.59H56.2974V36H44.9124V32.59H47.3874V21.755C47.3874 19.4083 46.9291 17.7217 46.0124 16.695C45.0957 15.6317 43.6107 15.1 41.5574 15.1C40.3474 15.1 39.1007 15.2833 37.8174 15.65C36.5341 15.98 35.4707 16.42 34.6274 16.97V32.59H37.1024V36H25.7174ZM72.9409 3.605H75.6909L75.5809 32.205H84.1609V36H62.1609V32.205H71.2909L71.3459 10.04L63.4809 16.53L61.0609 13.56L72.9409 3.605ZM589.336 36V32.59H593.956V5.475L588.731 3.66L589.886 0.249998L598.246 3.11V13.89C600.63 12.35 603.031 11.58 605.451 11.58C608.825 11.58 611.3 12.3317 612.876 13.835C614.49 15.3383 615.296 17.685 615.296 20.875V32.59H619.916V36H608.531V32.59H611.006V21.755C611.006 19.4083 610.548 17.7217 609.631 16.695C608.715 15.6317 607.23 15.1 605.176 15.1C603.966 15.1 602.72 15.2833 601.436 15.65C600.153 15.98 599.09 16.42 598.246 16.97V32.59H600.721V36H589.336ZM636.56 3.605H639.31L639.2 32.205H647.78V36H625.78V32.205H634.91L634.965 10.04L627.1 16.53L624.68 13.56L636.56 3.605Z" fill="#FFA3A3"/>
<path d="M115.729 3.605H128.929V7.4H125.409L125.354 17.52H141.194L141.249 7.4H137.729V3.605H150.874V7.4H145.649L145.484 32.205H150.764V36H137.674V32.205H141.194V21.315H125.354L125.299 32.205H128.819V36H115.674V32.205H120.954L121.009 7.4H115.729V3.605ZM177.994 33.195C176.528 34.4417 175.024 35.3583 173.484 35.945C171.981 36.5317 170.258 36.825 168.314 36.825C164.428 36.825 161.329 35.725 159.019 33.525C156.746 31.2883 155.609 28.1717 155.609 24.175C155.609 21.645 156.104 19.445 157.094 17.575C158.084 15.6683 159.478 14.2017 161.274 13.175C163.108 12.1117 165.216 11.58 167.599 11.58C170.936 11.58 173.539 12.625 175.409 14.715C177.316 16.805 178.269 19.5917 178.269 23.075C178.269 23.405 178.251 23.7533 178.214 24.12C178.214 24.45 178.196 24.7983 178.159 25.165L159.844 25.275C159.954 27.145 160.394 28.6667 161.164 29.84C161.971 31.0133 162.979 31.875 164.189 32.425C165.436 32.975 166.756 33.25 168.149 33.25C171.266 33.25 173.888 32.37 176.014 30.61L177.994 33.195ZM174.034 21.81C173.998 19.7567 173.393 18.1067 172.219 16.86C171.083 15.5767 169.561 14.935 167.654 14.935C165.711 14.935 164.006 15.5767 162.539 16.86C161.073 18.1067 160.193 19.775 159.899 21.865L174.034 21.81ZM182.846 36V32.59H187.466V4.87L181.966 3.66L182.901 0.139999L191.756 2.175V32.59H196.376V36H182.846ZM200.006 36V32.59H204.626V4.87L199.126 3.66L200.061 0.139999L208.916 2.175V32.59H213.536V36H200.006ZM230.145 11.58C232.602 11.58 234.728 12.0933 236.525 13.12C238.358 14.11 239.788 15.5583 240.815 17.465C241.842 19.335 242.355 21.59 242.355 24.23C242.355 28.1533 241.237 31.2333 239 33.47C236.763 35.7067 233.812 36.825 230.145 36.825C227.798 36.825 225.708 36.33 223.875 35.34C222.078 34.3133 220.667 32.865 219.64 30.995C218.65 29.0883 218.155 26.8333 218.155 24.23C218.155 21.59 218.65 19.335 219.64 17.465C220.667 15.5583 222.078 14.11 223.875 13.12C225.708 12.0933 227.798 11.58 230.145 11.58ZM230.2 15.1C227.67 15.1 225.763 15.9067 224.48 17.52C223.197 19.0967 222.555 21.3333 222.555 24.23C222.555 27.1267 223.197 29.3633 224.48 30.94C225.763 32.5167 227.67 33.305 230.2 33.305C232.803 33.305 234.747 32.5167 236.03 30.94C237.313 29.3633 237.955 27.1267 237.955 24.23C237.955 21.3333 237.313 19.0967 236.03 17.52C234.747 15.9067 232.803 15.1 230.2 15.1ZM249.202 3.605H253.547L252.887 25.77H249.697L249.202 3.605ZM251.292 30.005C252.208 30.005 252.997 30.3533 253.657 31.05C254.353 31.71 254.702 32.4983 254.702 33.415C254.702 34.3317 254.353 35.1383 253.657 35.835C252.997 36.495 252.208 36.825 251.292 36.825C250.375 36.825 249.568 36.495 248.872 35.835C248.212 35.1383 247.882 34.3317 247.882 33.415C247.882 32.4983 248.212 31.71 248.872 31.05C249.568 30.3533 250.375 30.005 251.292 30.005Z" fill="#C2A5F9"/>
<path d="M275.055 3.605H289.905V7.4H284.79L284.68 32.205H289.905V36H275V32.205H280.335V7.4H275.055V3.605ZM295.445 13.725C295.445 13.725 295.591 13.505 295.885 13.065C296.178 12.5883 296.526 12.02 296.93 11.36C297.333 10.6633 297.681 9.985 297.975 9.325C297.021 9.25167 296.27 8.90333 295.72 8.28C295.17 7.65667 294.895 6.94166 294.895 6.135C294.895 5.10833 295.225 4.28333 295.885 3.66C296.581 3.03667 297.443 2.725 298.47 2.725C299.46 2.725 300.321 3.09167 301.055 3.825C301.825 4.55833 302.21 5.43833 302.21 6.465C302.21 7.52833 301.971 8.59167 301.495 9.655C301.018 10.6817 300.45 11.635 299.79 12.515C299.166 13.395 298.598 14.0917 298.085 14.605C297.608 15.1183 297.37 15.375 297.37 15.375L295.445 13.725ZM306.586 36V32.59H311.206V16.805L305.926 14.99L307.081 11.58L314.341 14.11C315.368 13.34 316.541 12.735 317.861 12.295C319.218 11.8183 320.519 11.58 321.766 11.58C325.469 11.58 328.109 12.5333 329.686 14.44C330.603 13.5967 331.794 12.9183 333.261 12.405C334.728 11.855 336.139 11.58 337.496 11.58C340.833 11.58 343.234 12.3133 344.701 13.78C346.204 15.2467 346.956 17.6117 346.956 20.875V32.59H351.576V36H340.191V32.59H342.666V21.755C342.666 19.335 342.244 17.63 341.401 16.64C340.594 15.6133 339.201 15.1 337.221 15.1C336.048 15.1 334.893 15.2833 333.756 15.65C332.656 15.98 331.813 16.42 331.226 16.97V32.59H333.701V36H324.461V32.59H326.936V21.755C326.936 19.335 326.514 17.63 325.671 16.64C324.864 15.6133 323.471 15.1 321.491 15.1C320.318 15.1 319.163 15.2833 318.026 15.65C316.926 15.98 316.083 16.42 315.496 16.97V32.59H317.971V36H306.586ZM370.869 3.605H383.904V7.4H380.384V17.74H385.499L393.089 7.4H389.019V3.605H402.549V7.4H397.544L389.239 18.675L398.314 32.205H403.814V36H389.019V32.205H393.474L386.379 21.535H380.384L380.439 32.205H383.904V36H370.869V32.205H376.039V7.4H370.869V3.605ZM424.901 34.405C422.518 36.0183 419.933 36.825 417.146 36.825C410.913 36.825 407.759 34.3867 407.686 29.51C407.613 24.7067 410.656 22.305 416.816 22.305L423.911 22.36C423.911 17.52 422.059 15.1 418.356 15.1C416.559 15.1 414.909 15.32 413.406 15.76L412.856 18.785L409.336 18.125L410.216 13.12C413.076 12.0933 415.734 11.58 418.191 11.58C424.864 11.58 428.201 15.1 428.201 22.14V31.71L433.426 33.415L432.326 36.935L424.901 34.405ZM416.981 25.77C413.718 25.77 412.086 26.9983 412.086 29.455C412.086 32.0217 413.846 33.305 417.366 33.305C419.896 33.305 422.078 32.6083 423.911 31.215V25.825L416.981 25.77ZM444.212 14.165C445.459 13.3217 446.871 12.68 448.447 12.24C450.024 11.8 451.601 11.58 453.177 11.58C454.497 11.58 455.194 11.6167 455.267 11.69L456.202 17.465L452.627 18.235L452.077 15.155C450.941 15.155 449.767 15.32 448.557 15.65C447.384 15.98 446.302 16.4383 445.312 17.025V32.59H450.702V36H436.402V32.59H441.022V16.86L435.742 15.045L436.897 11.635L444.212 14.165ZM460.106 12.405H469.016V32.59H473.581V36H460.106V32.59H464.671V15.815H460.106V12.405ZM466.266 0.689999C467.292 0.689999 468.117 1.00167 468.741 1.625C469.364 2.24833 469.676 3.07333 469.676 4.1C469.676 5.12666 469.364 5.95166 468.741 6.575C468.117 7.19833 467.292 7.51 466.266 7.51C465.239 7.51 464.414 7.19833 463.791 6.575C463.204 5.95166 462.911 5.12666 462.911 4.1C462.911 3.07333 463.204 2.24833 463.791 1.625C464.414 1.00167 465.239 0.689999 466.266 0.689999ZM478.24 36V32.59H482.86V16.805L477.58 14.99L478.735 11.58L486.05 14.11C487.333 13.2667 488.69 12.6433 490.12 12.24C491.586 11.8 493.016 11.58 494.41 11.58C496.17 11.58 497.783 11.9283 499.25 12.625C500.753 13.285 501.945 14.3117 502.825 15.705C503.741 17.0617 504.2 18.785 504.2 20.875V32.59H508.82V36H497.435V32.59H499.91V21.755C499.91 19.4083 499.305 17.7217 498.095 16.695C496.921 15.6317 495.455 15.1 493.695 15.1C491.605 15.1 489.423 15.7233 487.15 16.97V32.59H489.625V36H478.24ZM530.385 34.405C528.002 36.0183 525.417 36.825 522.63 36.825C516.397 36.825 513.243 34.3867 513.17 29.51C513.097 24.7067 516.14 22.305 522.3 22.305L529.395 22.36C529.395 17.52 527.543 15.1 523.84 15.1C522.043 15.1 520.393 15.32 518.89 15.76L518.34 18.785L514.82 18.125L515.7 13.12C518.56 12.0933 521.218 11.58 523.675 11.58C530.348 11.58 533.685 15.1 533.685 22.14V31.71L538.91 33.415L537.81 36.935L530.385 34.405ZM522.465 25.77C519.202 25.77 517.57 26.9983 517.57 29.455C517.57 32.0217 519.33 33.305 522.85 33.305C525.38 33.305 527.562 32.6083 529.395 31.215V25.825L522.465 25.77Z" fill="#67A8FF"/>
</svg>
