<svg width="792" height="167" viewBox="0 0 792 167" fill="none" xmlns="http://www.w3.org/2000/svg">
<path d="M78.5123 18.565L59.0973 28.025V31.38L78.4023 42.105L80.2173 38.585L64.4323 30.06V29.73L80.2173 22.085L78.5123 18.565ZM149.879 18.565L169.294 28.025V31.38L149.989 42.105L148.174 38.585L163.959 30.06V29.73L148.174 22.085L149.879 18.565ZM621.856 18.565L602.441 28.025V31.38L621.746 42.105L623.561 38.585L607.776 30.06V29.73L623.561 22.085L621.856 18.565ZM643.517 14.605H647.532L629.547 54.205H625.477L643.517 14.605ZM713.498 18.565L732.913 28.025V31.38L713.608 42.105L711.793 38.585L727.578 30.06V29.73L711.793 22.085L713.498 18.565Z" fill="#C4C4C4"/>
<path d="M84.7174 47V43.59H89.3374V16.475L84.1124 14.66L85.2674 11.25L93.6274 14.11V24.89C96.0107 23.35 98.4124 22.58 100.832 22.58C104.206 22.58 106.681 23.3317 108.257 24.835C109.871 26.3383 110.677 28.685 110.677 31.875V43.59H115.297V47H103.912V43.59H106.387V32.755C106.387 30.4083 105.929 28.7217 105.012 27.695C104.096 26.6317 102.611 26.1 100.557 26.1C99.3474 26.1 98.1007 26.2833 96.8174 26.65C95.5341 26.98 94.4707 27.42 93.6274 27.97V43.59H96.1024V47H84.7174ZM131.941 14.605H134.691L134.581 43.205H143.161V47H121.161V43.205H130.291L130.346 21.04L122.481 27.53L120.061 24.56L131.941 14.605ZM648.336 47V43.59H652.956V16.475L647.731 14.66L648.886 11.25L657.246 14.11V24.89C659.63 23.35 662.031 22.58 664.451 22.58C667.825 22.58 670.3 23.3317 671.876 24.835C673.49 26.3383 674.296 28.685 674.296 31.875V43.59H678.916V47H667.531V43.59H670.006V32.755C670.006 30.4083 669.548 28.7217 668.631 27.695C667.715 26.6317 666.23 26.1 664.176 26.1C662.966 26.1 661.72 26.2833 660.436 26.65C659.153 26.98 658.09 27.42 657.246 27.97V43.59H659.721V47H648.336ZM695.56 14.605H698.31L698.2 43.205H706.78V47H684.78V43.205H693.91L693.965 21.04L686.1 27.53L683.68 24.56L695.56 14.605Z" fill="#FFA3A3"/>
<path d="M174.729 14.605H187.929V18.4H184.409L184.354 28.52H200.194L200.249 18.4H196.729V14.605H209.874V18.4H204.649L204.484 43.205H209.764V47H196.674V43.205H200.194V32.315H184.354L184.299 43.205H187.819V47H174.674V43.205H179.954L180.009 18.4H174.729V14.605ZM236.994 44.195C235.528 45.4417 234.024 46.3583 232.484 46.945C230.981 47.5317 229.258 47.825 227.314 47.825C223.428 47.825 220.329 46.725 218.019 44.525C215.746 42.2883 214.609 39.1717 214.609 35.175C214.609 32.645 215.104 30.445 216.094 28.575C217.084 26.6683 218.478 25.2017 220.274 24.175C222.108 23.1117 224.216 22.58 226.599 22.58C229.936 22.58 232.539 23.625 234.409 25.715C236.316 27.805 237.269 30.5917 237.269 34.075C237.269 34.405 237.251 34.7533 237.214 35.12C237.214 35.45 237.196 35.7983 237.159 36.165L218.844 36.275C218.954 38.145 219.394 39.6667 220.164 40.84C220.971 42.0133 221.979 42.875 223.189 43.425C224.436 43.975 225.756 44.25 227.149 44.25C230.266 44.25 232.888 43.37 235.014 41.61L236.994 44.195ZM233.034 32.81C232.998 30.7567 232.393 29.1067 231.219 27.86C230.083 26.5767 228.561 25.935 226.654 25.935C224.711 25.935 223.006 26.5767 221.539 27.86C220.073 29.1067 219.193 30.775 218.899 32.865L233.034 32.81ZM241.846 47V43.59H246.466V15.87L240.966 14.66L241.901 11.14L250.756 13.175V43.59H255.376V47H241.846ZM259.006 47V43.59H263.626V15.87L258.126 14.66L259.061 11.14L267.916 13.175V43.59H272.536V47H259.006ZM289.145 22.58C291.602 22.58 293.728 23.0933 295.525 24.12C297.358 25.11 298.788 26.5583 299.815 28.465C300.842 30.335 301.355 32.59 301.355 35.23C301.355 39.1533 300.237 42.2333 298 44.47C295.763 46.7067 292.812 47.825 289.145 47.825C286.798 47.825 284.708 47.33 282.875 46.34C281.078 45.3133 279.667 43.865 278.64 41.995C277.65 40.0883 277.155 37.8333 277.155 35.23C277.155 32.59 277.65 30.335 278.64 28.465C279.667 26.5583 281.078 25.11 282.875 24.12C284.708 23.0933 286.798 22.58 289.145 22.58ZM289.2 26.1C286.67 26.1 284.763 26.9067 283.48 28.52C282.197 30.0967 281.555 32.3333 281.555 35.23C281.555 38.1267 282.197 40.3633 283.48 41.94C284.763 43.5167 286.67 44.305 289.2 44.305C291.803 44.305 293.747 43.5167 295.03 41.94C296.313 40.3633 296.955 38.1267 296.955 35.23C296.955 32.3333 296.313 30.0967 295.03 28.52C293.747 26.9067 291.803 26.1 289.2 26.1ZM308.202 14.605H312.547L311.887 36.77H308.697L308.202 14.605ZM310.292 41.005C311.208 41.005 311.997 41.3533 312.657 42.05C313.353 42.71 313.702 43.4983 313.702 44.415C313.702 45.3317 313.353 46.1383 312.657 46.835C311.997 47.495 311.208 47.825 310.292 47.825C309.375 47.825 308.568 47.495 307.872 46.835C307.212 46.1383 306.882 45.3317 306.882 44.415C306.882 43.4983 307.212 42.71 307.872 42.05C308.568 41.3533 309.375 41.005 310.292 41.005Z" fill="#C2A5F9"/>
<path d="M334.055 14.605H348.905V18.4H343.79L343.68 43.205H348.905V47H334V43.205H339.335V18.4H334.055V14.605ZM354.445 24.725C354.445 24.725 354.591 24.505 354.885 24.065C355.178 23.5883 355.526 23.02 355.93 22.36C356.333 21.6633 356.681 20.985 356.975 20.325C356.021 20.2517 355.27 19.9033 354.72 19.28C354.17 18.6567 353.895 17.9417 353.895 17.135C353.895 16.1083 354.225 15.2833 354.885 14.66C355.581 14.0367 356.443 13.725 357.47 13.725C358.46 13.725 359.321 14.0917 360.055 14.825C360.825 15.5583 361.21 16.4383 361.21 17.465C361.21 18.5283 360.971 19.5917 360.495 20.655C360.018 21.6817 359.45 22.635 358.79 23.515C358.166 24.395 357.598 25.0917 357.085 25.605C356.608 26.1183 356.37 26.375 356.37 26.375L354.445 24.725ZM365.586 47V43.59H370.206V27.805L364.926 25.99L366.081 22.58L373.341 25.11C374.368 24.34 375.541 23.735 376.861 23.295C378.218 22.8183 379.519 22.58 380.766 22.58C384.469 22.58 387.109 23.5333 388.686 25.44C389.603 24.5967 390.794 23.9183 392.261 23.405C393.728 22.855 395.139 22.58 396.496 22.58C399.833 22.58 402.234 23.3133 403.701 24.78C405.204 26.2467 405.956 28.6117 405.956 31.875V43.59H410.576V47H399.191V43.59H401.666V32.755C401.666 30.335 401.244 28.63 400.401 27.64C399.594 26.6133 398.201 26.1 396.221 26.1C395.048 26.1 393.893 26.2833 392.756 26.65C391.656 26.98 390.813 27.42 390.226 27.97V43.59H392.701V47H383.461V43.59H385.936V32.755C385.936 30.335 385.514 28.63 384.671 27.64C383.864 26.6133 382.471 26.1 380.491 26.1C379.318 26.1 378.163 26.2833 377.026 26.65C375.926 26.98 375.083 27.42 374.496 27.97V43.59H376.971V47H365.586ZM429.869 14.605H442.904V18.4H439.384V28.74H444.499L452.089 18.4H448.019V14.605H461.549V18.4H456.544L448.239 29.675L457.314 43.205H462.814V47H448.019V43.205H452.474L445.379 32.535H439.384L439.439 43.205H442.904V47H429.869V43.205H435.039V18.4H429.869V14.605ZM483.901 45.405C481.518 47.0183 478.933 47.825 476.146 47.825C469.913 47.825 466.759 45.3867 466.686 40.51C466.613 35.7067 469.656 33.305 475.816 33.305L482.911 33.36C482.911 28.52 481.059 26.1 477.356 26.1C475.559 26.1 473.909 26.32 472.406 26.76L471.856 29.785L468.336 29.125L469.216 24.12C472.076 23.0933 474.734 22.58 477.191 22.58C483.864 22.58 487.201 26.1 487.201 33.14V42.71L492.426 44.415L491.326 47.935L483.901 45.405ZM475.981 36.77C472.718 36.77 471.086 37.9983 471.086 40.455C471.086 43.0217 472.846 44.305 476.366 44.305C478.896 44.305 481.078 43.6083 482.911 42.215V36.825L475.981 36.77ZM503.212 25.165C504.459 24.3217 505.871 23.68 507.447 23.24C509.024 22.8 510.601 22.58 512.177 22.58C513.497 22.58 514.194 22.6167 514.267 22.69L515.202 28.465L511.627 29.235L511.077 26.155C509.941 26.155 508.767 26.32 507.557 26.65C506.384 26.98 505.302 27.4383 504.312 28.025V43.59H509.702V47H495.402V43.59H500.022V27.86L494.742 26.045L495.897 22.635L503.212 25.165ZM519.106 23.405H528.016V43.59H532.581V47H519.106V43.59H523.671V26.815H519.106V23.405ZM525.266 11.69C526.292 11.69 527.117 12.0017 527.741 12.625C528.364 13.2483 528.676 14.0733 528.676 15.1C528.676 16.1267 528.364 16.9517 527.741 17.575C527.117 18.1983 526.292 18.51 525.266 18.51C524.239 18.51 523.414 18.1983 522.791 17.575C522.204 16.9517 521.911 16.1267 521.911 15.1C521.911 14.0733 522.204 13.2483 522.791 12.625C523.414 12.0017 524.239 11.69 525.266 11.69ZM537.24 47V43.59H541.86V27.805L536.58 25.99L537.735 22.58L545.05 25.11C546.333 24.2667 547.69 23.6433 549.12 23.24C550.586 22.8 552.016 22.58 553.41 22.58C555.17 22.58 556.783 22.9283 558.25 23.625C559.753 24.285 560.945 25.3117 561.825 26.705C562.741 28.0617 563.2 29.785 563.2 31.875V43.59H567.82V47H556.435V43.59H558.91V32.755C558.91 30.4083 558.305 28.7217 557.095 27.695C555.921 26.6317 554.455 26.1 552.695 26.1C550.605 26.1 548.423 26.7233 546.15 27.97V43.59H548.625V47H537.24ZM589.385 45.405C587.002 47.0183 584.417 47.825 581.63 47.825C575.397 47.825 572.243 45.3867 572.17 40.51C572.097 35.7067 575.14 33.305 581.3 33.305L588.395 33.36C588.395 28.52 586.543 26.1 582.84 26.1C581.043 26.1 579.393 26.32 577.89 26.76L577.34 29.785L573.82 29.125L574.7 24.12C577.56 23.0933 580.218 22.58 582.675 22.58C589.348 22.58 592.685 26.1 592.685 33.14V42.71L597.91 44.415L596.81 47.935L589.385 45.405ZM581.465 36.77C578.202 36.77 576.57 37.9983 576.57 40.455C576.57 43.0217 578.33 44.305 581.85 44.305C584.38 44.305 586.562 43.6083 588.395 42.215V36.825L581.465 36.77Z" fill="#67A8FF"/>
<path d="M209.452 88.7825L199.745 93.5125V95.19L209.397 100.552L210.305 98.7925L202.412 94.53V94.365L210.305 90.5425L209.452 88.7825ZM229.922 88.7825L239.63 93.5125V95.19L229.977 100.552L229.07 98.7925L236.962 94.53V94.365L229.07 90.5425L229.922 88.7825ZM506.166 124.782L496.458 129.512V131.19L506.111 136.552L507.018 134.792L499.126 130.53V130.365L507.018 126.542L506.166 124.782ZM516.996 122.802H519.003L510.011 142.603H507.976L516.996 122.802ZM536.773 124.782L546.481 129.512V131.19L536.828 136.552L535.921 134.792L543.813 130.53V130.365L535.921 126.542L536.773 124.782Z" fill="#C4C4C4"/>
<path d="M212.802 108.72V107.015H215.112V93.32L212.527 92.4675L213.077 90.7075L216.762 91.9725C217.349 91.6058 217.963 91.3217 218.605 91.12C219.246 90.9 219.851 90.79 220.42 90.79C222.235 90.79 223.665 91.3217 224.71 92.385C225.773 93.43 226.305 94.8783 226.305 96.73C226.305 98.0317 226.048 99.1867 225.535 100.195C225.04 101.203 224.343 101.992 223.445 102.56C222.546 103.128 221.501 103.413 220.31 103.413C219.265 103.413 218.247 103.257 217.257 102.945V107.015H219.567V108.72H212.802ZM220.282 101.652C221.474 101.652 222.409 101.222 223.087 100.36C223.765 99.48 224.105 98.27 224.105 96.73C224.105 93.9433 222.867 92.55 220.392 92.55C219.824 92.55 219.237 92.6508 218.632 92.8525C218.045 93.0358 217.587 93.2742 217.257 93.5675V100.965C217.569 101.167 218.009 101.332 218.577 101.46C219.145 101.588 219.714 101.652 220.282 101.652ZM519.653 144.72V143.015H521.963V129.32L519.378 128.467L519.928 126.707L523.613 127.972C524.2 127.606 524.814 127.322 525.456 127.12C526.097 126.9 526.702 126.79 527.271 126.79C529.086 126.79 530.516 127.322 531.561 128.385C532.624 129.43 533.156 130.878 533.156 132.73C533.156 134.032 532.899 135.187 532.386 136.195C531.891 137.203 531.194 137.992 530.296 138.56C529.397 139.128 528.352 139.413 527.161 139.413C526.116 139.413 525.098 139.257 524.108 138.945V143.015H526.418V144.72H519.653ZM527.133 137.652C528.325 137.652 529.26 137.222 529.938 136.36C530.617 135.48 530.956 134.27 530.956 132.73C530.956 129.943 529.718 128.55 527.243 128.55C526.675 128.55 526.088 128.651 525.483 128.852C524.897 129.036 524.438 129.274 524.108 129.567V136.965C524.42 137.167 524.86 137.332 525.428 137.46C525.997 137.588 526.565 137.652 527.133 137.652Z" fill="#FFA3A3"/>
<path d="M242.347 86.8025H249.772V88.7H247.215L247.16 101.102H249.772V103H242.32V101.102H244.987V88.7H242.347V86.8025ZM251.634 86.8025H254.109L253.724 92.4675H252.019L251.634 86.8025ZM256.34 103V101.295H258.65V93.4025L256.01 92.495L256.588 90.79L260.218 92.055C260.731 91.67 261.318 91.3675 261.978 91.1475C262.656 90.9092 263.307 90.79 263.93 90.79C265.782 90.79 267.102 91.2667 267.89 92.22C268.349 91.7983 268.945 91.4592 269.678 91.2025C270.411 90.9275 271.117 90.79 271.795 90.79C273.464 90.79 274.665 91.1567 275.398 91.89C276.15 92.6233 276.525 93.8058 276.525 95.4375V101.295H278.835V103H273.143V101.295H274.38V95.8775C274.38 94.6675 274.17 93.815 273.748 93.32C273.345 92.8067 272.648 92.55 271.658 92.55C271.071 92.55 270.494 92.6417 269.925 92.825C269.375 92.99 268.954 93.21 268.66 93.485V101.295H269.898V103H265.278V101.295H266.515V95.8775C266.515 94.6675 266.305 93.815 265.883 93.32C265.48 92.8067 264.783 92.55 263.793 92.55C263.206 92.55 262.629 92.6417 262.06 92.825C261.51 92.99 261.089 93.21 260.795 93.485V101.295H262.033V103H256.34ZM297.062 102.202C295.87 103.009 294.578 103.413 293.185 103.413C290.068 103.413 288.491 102.193 288.455 99.755C288.418 97.3533 289.94 96.1525 293.02 96.1525L296.567 96.18C296.567 93.76 295.641 92.55 293.79 92.55C292.891 92.55 292.066 92.66 291.315 92.88L291.04 94.3925L289.28 94.0625L289.72 91.56C291.15 91.0467 292.479 90.79 293.707 90.79C297.044 90.79 298.712 92.55 298.712 96.07V100.855L301.325 101.707L300.775 103.468L297.062 102.202ZM293.102 97.885C291.47 97.885 290.655 98.4992 290.655 99.7275C290.655 101.011 291.535 101.652 293.295 101.652C294.56 101.652 295.65 101.304 296.567 100.607V97.9125L293.102 97.885ZM318.577 92.935C318.174 92.77 317.789 92.6417 317.422 92.55C317.056 92.4583 316.579 92.4125 315.992 92.4125C315.296 92.4125 314.663 92.5683 314.095 92.88C313.545 93.1917 313.27 93.6317 313.27 94.2C313.27 94.75 313.499 95.1808 313.957 95.4925C314.434 95.7858 315.094 95.9783 315.937 96.07L317.065 96.18C318.568 96.3267 319.622 96.7025 320.227 97.3075C320.832 97.8942 321.135 98.6733 321.135 99.645C321.135 100.763 320.676 101.671 319.76 102.367C318.843 103.064 317.651 103.413 316.185 103.413C315.286 103.413 314.406 103.293 313.545 103.055C312.701 102.817 311.968 102.523 311.345 102.175L310.877 99.3975L312.775 98.93L313.187 100.855C313.609 101.093 314.067 101.277 314.562 101.405C315.076 101.533 315.589 101.597 316.102 101.597C316.909 101.597 317.615 101.442 318.22 101.13C318.843 100.8 319.155 100.323 319.155 99.7C319.155 99.15 318.971 98.765 318.605 98.545C318.238 98.3067 317.596 98.1325 316.68 98.0225L315.47 97.885C314.113 97.7383 313.077 97.3442 312.362 96.7025C311.647 96.0608 311.29 95.2725 311.29 94.3375C311.29 93.5308 311.519 92.8617 311.977 92.33C312.436 91.7983 313.022 91.4042 313.737 91.1475C314.471 90.8908 315.231 90.7625 316.02 90.7625C316.881 90.7625 317.651 90.845 318.33 91.01C319.008 91.175 319.659 91.4133 320.282 91.725L320.777 94.3375L319.045 94.7225L318.577 92.935ZM334.842 101.597C334.108 102.221 333.357 102.679 332.587 102.972C331.835 103.266 330.973 103.413 330.002 103.413C328.058 103.413 326.509 102.862 325.354 101.762C324.217 100.644 323.649 99.0858 323.649 97.0875C323.649 95.8225 323.897 94.7225 324.392 93.7875C324.887 92.8342 325.583 92.1008 326.482 91.5875C327.398 91.0558 328.452 90.79 329.644 90.79C331.312 90.79 332.614 91.3125 333.549 92.3575C334.502 93.4025 334.979 94.7958 334.979 96.5375C334.979 96.7025 334.97 96.8767 334.952 97.06C334.952 97.225 334.942 97.3992 334.924 97.5825L325.767 97.6375C325.822 98.5725 326.042 99.3333 326.427 99.92C326.83 100.507 327.334 100.937 327.939 101.212C328.562 101.487 329.222 101.625 329.919 101.625C331.477 101.625 332.788 101.185 333.852 100.305L334.842 101.597ZM332.862 95.905C332.843 94.8783 332.541 94.0533 331.954 93.43C331.386 92.7883 330.625 92.4675 329.672 92.4675C328.7 92.4675 327.847 92.7883 327.114 93.43C326.381 94.0533 325.941 94.8875 325.794 95.9325L332.862 95.905ZM337.267 103V101.295H339.577V87.435L336.827 86.83L337.295 85.07L341.722 86.0875V101.295H344.032V103H337.267ZM348.515 89.5525C348.515 88.0858 348.945 86.9492 349.807 86.1425C350.669 85.3175 351.879 84.905 353.437 84.905C354.097 84.905 354.73 85.0058 355.335 85.2075C355.958 85.4092 356.471 85.6933 356.875 86.06L356.022 87.5725C355.362 86.9675 354.455 86.665 353.3 86.665C352.475 86.665 351.824 86.9583 351.347 87.545C350.889 88.1317 350.66 88.9475 350.66 89.9925V91.2025H354.07V92.9075H350.66V101.295H353.135V103H346.205V101.295H348.515V92.9075H346.205V91.2025H348.515V89.5525ZM356.59 95.685H365.032V97.5825H356.59V95.685ZM373.625 103.413C372.965 103.413 372.332 103.284 371.727 103.028C371.141 102.771 370.664 102.312 370.297 101.652C369.931 100.992 369.747 100.076 369.747 98.9025V92.9075H367.465V91.2025H369.747V88.535L371.837 88.04V91.2025H375.275V92.9075H371.837V97.6925C371.837 98.9208 371.956 99.9108 372.195 100.662C372.433 101.414 372.956 101.79 373.762 101.79C374.331 101.79 374.972 101.625 375.687 101.295L376.1 102.835C375.715 102.982 375.311 103.11 374.89 103.22C374.468 103.348 374.046 103.413 373.625 103.413ZM386.97 102.202C385.778 103.009 384.486 103.413 383.092 103.413C379.976 103.413 378.399 102.193 378.362 99.755C378.326 97.3533 379.847 96.1525 382.927 96.1525L386.475 96.18C386.475 93.76 385.549 92.55 383.697 92.55C382.799 92.55 381.974 92.66 381.222 92.88L380.947 94.3925L379.187 94.0625L379.627 91.56C381.057 91.0467 382.387 90.79 383.615 90.79C386.952 90.79 388.62 92.55 388.62 96.07V100.855L391.232 101.707L390.682 103.468L386.97 102.202ZM383.01 97.885C381.378 97.885 380.562 98.4992 380.562 99.7275C380.562 101.011 381.442 101.652 383.202 101.652C384.467 101.652 385.558 101.304 386.475 100.607V97.9125L383.01 97.885ZM403.446 102.202C402.859 102.569 402.199 102.862 401.466 103.083C400.732 103.303 400.045 103.413 399.403 103.413C397.717 103.413 396.47 103.037 395.663 102.285C394.875 101.533 394.481 100.36 394.481 98.765V92.9075H392.171V91.2025H396.626V98.325C396.626 99.4983 396.855 100.351 397.313 100.882C397.79 101.396 398.532 101.652 399.541 101.652C400.127 101.652 400.751 101.57 401.411 101.405C402.071 101.222 402.602 100.992 403.006 100.717V92.9075H400.696V91.2025H405.151V100.855L407.736 101.735L407.186 103.495L403.446 102.202ZM415.144 99.755C414.887 99.755 414.639 99.7458 414.401 99.7275V102.257H416.821C419.754 102.257 421.221 103.321 421.221 105.448C421.221 106.603 420.699 107.501 419.654 108.143C418.627 108.803 417.197 109.133 415.364 109.133C414.777 109.133 414.089 109.068 413.301 108.94C412.513 108.812 411.761 108.638 411.046 108.418C410.349 108.216 409.827 108.014 409.479 107.813L410.249 106.19C410.909 106.538 411.724 106.813 412.696 107.015C413.668 107.217 414.557 107.318 415.364 107.318C416.537 107.318 417.454 107.18 418.114 106.905C418.774 106.63 419.104 106.208 419.104 105.64C419.104 105.053 418.856 104.623 418.361 104.348C417.866 104.091 417.16 103.963 416.244 103.963H412.311V99.26C411.486 98.9117 410.854 98.4075 410.414 97.7475C409.974 97.0875 409.754 96.29 409.754 95.355C409.754 93.9433 410.239 92.8342 411.211 92.0275C412.183 91.2025 413.503 90.79 415.171 90.79C416.509 90.79 417.628 91.0467 418.526 91.56L422.431 90.1025L423.064 91.9175L419.819 92.66C420.369 93.3383 420.644 94.1908 420.644 95.2175C420.644 96.6108 420.149 97.72 419.159 98.545C418.169 99.3517 416.83 99.755 415.144 99.755ZM415.199 97.995C416.207 97.995 417.004 97.7383 417.591 97.225C418.178 96.7117 418.471 96.0608 418.471 95.2725C418.471 94.4108 418.196 93.7417 417.646 93.265C417.096 92.7883 416.28 92.55 415.199 92.55C414.117 92.55 413.301 92.7883 412.751 93.265C412.201 93.7417 411.926 94.4108 411.926 95.2725C411.926 96.0608 412.219 96.7117 412.806 97.225C413.393 97.7383 414.19 97.995 415.199 97.995ZM424.69 103V101.295H427V87.7375L424.388 86.83L424.965 85.125L429.145 86.555V91.945C430.337 91.175 431.538 90.79 432.748 90.79C434.434 90.79 435.672 91.1658 436.46 91.9175C437.267 92.6692 437.67 93.8425 437.67 95.4375V101.295H439.98V103H434.288V101.295H435.525V95.8775C435.525 94.7042 435.296 93.8608 434.838 93.3475C434.379 92.8158 433.637 92.55 432.61 92.55C432.005 92.55 431.382 92.6417 430.74 92.825C430.099 92.99 429.567 93.21 429.145 93.485V101.295H430.383V103H424.69ZM447.676 103.413C447.016 103.413 446.383 103.284 445.778 103.028C445.192 102.771 444.715 102.312 444.348 101.652C443.982 100.992 443.798 100.076 443.798 98.9025V92.9075H441.516V91.2025H443.798V88.535L445.888 88.04V91.2025H449.326V92.9075H445.888V97.6925C445.888 98.9208 446.008 99.9108 446.246 100.662C446.484 101.414 447.007 101.79 447.813 101.79C448.382 101.79 449.023 101.625 449.738 101.295L450.151 102.835C449.766 102.982 449.363 103.11 448.941 103.22C448.519 103.348 448.098 103.413 447.676 103.413ZM459.701 108.72V107.015H462.011V93.32L459.426 92.4675L459.976 90.7075L463.661 91.9725C464.247 91.6058 464.861 91.3217 465.503 91.12C466.145 90.9 466.75 90.79 467.318 90.79C469.133 90.79 470.563 91.3217 471.608 92.385C472.671 93.43 473.203 94.8783 473.203 96.73C473.203 98.0317 472.946 99.1867 472.433 100.195C471.938 101.203 471.241 101.992 470.343 102.56C469.445 103.128 468.4 103.413 467.208 103.413C466.163 103.413 465.146 103.257 464.156 102.945V107.015H466.466V108.72H459.701ZM467.181 101.652C468.372 101.652 469.307 101.222 469.986 100.36C470.664 99.48 471.003 98.27 471.003 96.73C471.003 93.9433 469.766 92.55 467.291 92.55C466.722 92.55 466.136 92.6508 465.531 92.8525C464.944 93.0358 464.486 93.2742 464.156 93.5675V100.965C464.467 101.167 464.907 101.332 465.476 101.46C466.044 101.588 466.612 101.652 467.181 101.652ZM484.438 102.202C483.246 103.009 481.954 103.413 480.561 103.413C477.444 103.413 475.867 102.193 475.831 99.755C475.794 97.3533 477.316 96.1525 480.396 96.1525L483.943 96.18C483.943 93.76 483.017 92.55 481.166 92.55C480.267 92.55 479.442 92.66 478.691 92.88L478.416 94.3925L476.656 94.0625L477.096 91.56C478.526 91.0467 479.855 90.79 481.083 90.79C484.42 90.79 486.088 92.55 486.088 96.07V100.855L488.701 101.707L488.151 103.468L484.438 102.202ZM480.478 97.885C478.846 97.885 478.031 98.4992 478.031 99.7275C478.031 101.011 478.911 101.652 480.671 101.652C481.936 101.652 483.026 101.304 483.943 100.607V97.9125L480.478 97.885ZM498.501 92.935C498.098 92.77 497.713 92.6417 497.346 92.55C496.98 92.4583 496.503 92.4125 495.916 92.4125C495.22 92.4125 494.587 92.5683 494.019 92.88C493.469 93.1917 493.194 93.6317 493.194 94.2C493.194 94.75 493.423 95.1808 493.881 95.4925C494.358 95.7858 495.018 95.9783 495.861 96.07L496.989 96.18C498.492 96.3267 499.546 96.7025 500.151 97.3075C500.756 97.8942 501.059 98.6733 501.059 99.645C501.059 100.763 500.601 101.671 499.684 102.367C498.767 103.064 497.576 103.413 496.109 103.413C495.211 103.413 494.331 103.293 493.469 103.055C492.626 102.817 491.892 102.523 491.269 102.175L490.801 99.3975L492.699 98.93L493.111 100.855C493.533 101.093 493.991 101.277 494.486 101.405C495 101.533 495.513 101.597 496.026 101.597C496.833 101.597 497.539 101.442 498.144 101.13C498.767 100.8 499.079 100.323 499.079 99.7C499.079 99.15 498.896 98.765 498.529 98.545C498.162 98.3067 497.521 98.1325 496.604 98.0225L495.394 97.885C494.037 97.7383 493.001 97.3442 492.286 96.7025C491.571 96.0608 491.214 95.2725 491.214 94.3375C491.214 93.5308 491.443 92.8617 491.901 92.33C492.36 91.7983 492.946 91.4042 493.661 91.1475C494.395 90.8908 495.156 90.7625 495.944 90.7625C496.806 90.7625 497.576 90.845 498.254 91.01C498.932 91.175 499.583 91.4133 500.206 91.725L500.701 94.3375L498.969 94.7225L498.501 92.935ZM511.432 92.935C511.028 92.77 510.643 92.6417 510.277 92.55C509.91 92.4583 509.433 92.4125 508.847 92.4125C508.15 92.4125 507.518 92.5683 506.949 92.88C506.399 93.1917 506.124 93.6317 506.124 94.2C506.124 94.75 506.353 95.1808 506.812 95.4925C507.288 95.7858 507.948 95.9783 508.792 96.07L509.919 96.18C511.423 96.3267 512.477 96.7025 513.082 97.3075C513.687 97.8942 513.989 98.6733 513.989 99.645C513.989 100.763 513.531 101.671 512.614 102.367C511.698 103.064 510.506 103.413 509.039 103.413C508.141 103.413 507.261 103.293 506.399 103.055C505.556 102.817 504.823 102.523 504.199 102.175L503.732 99.3975L505.629 98.93L506.042 100.855C506.463 101.093 506.922 101.277 507.417 101.405C507.93 101.533 508.443 101.597 508.957 101.597C509.763 101.597 510.469 101.442 511.074 101.13C511.698 100.8 512.009 100.323 512.009 99.7C512.009 99.15 511.826 98.765 511.459 98.545C511.093 98.3067 510.451 98.1325 509.534 98.0225L508.324 97.885C506.968 97.7383 505.932 97.3442 505.217 96.7025C504.502 96.0608 504.144 95.2725 504.144 94.3375C504.144 93.5308 504.373 92.8617 504.832 92.33C505.29 91.7983 505.877 91.4042 506.592 91.1475C507.325 90.8908 508.086 90.7625 508.874 90.7625C509.736 90.7625 510.506 90.845 511.184 91.01C511.863 91.175 512.513 91.4133 513.137 91.725L513.632 94.3375L511.899 94.7225L511.432 92.935ZM516.69 91.2025H521.145V101.295H523.427V103H516.69V101.295H518.972V92.9075H516.69V91.2025ZM519.77 85.345C520.283 85.345 520.695 85.5008 521.007 85.8125C521.319 86.1242 521.475 86.5367 521.475 87.05C521.475 87.5633 521.319 87.9758 521.007 88.2875C520.695 88.5992 520.283 88.755 519.77 88.755C519.256 88.755 518.844 88.5992 518.532 88.2875C518.239 87.9758 518.092 87.5633 518.092 87.05C518.092 86.5367 518.239 86.1242 518.532 85.8125C518.844 85.5008 519.256 85.345 519.77 85.345ZM531.724 90.79C532.952 90.79 534.016 91.0467 534.914 91.56C535.831 92.055 536.546 92.7792 537.059 93.7325C537.572 94.6675 537.829 95.795 537.829 97.115C537.829 99.0767 537.27 100.617 536.152 101.735C535.033 102.853 533.557 103.413 531.724 103.413C530.551 103.413 529.506 103.165 528.589 102.67C527.691 102.157 526.985 101.432 526.472 100.497C525.977 99.5442 525.729 98.4167 525.729 97.115C525.729 95.795 525.977 94.6675 526.472 93.7325C526.985 92.7792 527.691 92.055 528.589 91.56C529.506 91.0467 530.551 90.79 531.724 90.79ZM531.752 92.55C530.487 92.55 529.533 92.9533 528.892 93.76C528.25 94.5483 527.929 95.6667 527.929 97.115C527.929 98.5633 528.25 99.6817 528.892 100.47C529.533 101.258 530.487 101.652 531.752 101.652C533.053 101.652 534.025 101.258 534.667 100.47C535.308 99.6817 535.629 98.5633 535.629 97.115C535.629 95.6667 535.308 94.5483 534.667 93.76C534.025 92.9533 533.053 92.55 531.752 92.55ZM540.11 103V101.295H542.42V93.4025L539.78 92.495L540.358 90.79L544.015 92.055C544.657 91.6333 545.335 91.3217 546.05 91.12C546.784 90.9 547.499 90.79 548.195 90.79C549.075 90.79 549.882 90.9642 550.615 91.3125C551.367 91.6425 551.963 92.1558 552.403 92.8525C552.861 93.5308 553.09 94.3925 553.09 95.4375V101.295H555.4V103H549.708V101.295H550.945V95.8775C550.945 94.7042 550.643 93.8608 550.038 93.3475C549.451 92.8158 548.718 92.55 547.838 92.55C546.793 92.55 545.702 92.8617 544.565 93.485V101.295H545.803V103H540.11ZM566.183 102.202C564.991 103.009 563.699 103.413 562.305 103.413C559.189 103.413 557.612 102.193 557.575 99.755C557.539 97.3533 559.06 96.1525 562.14 96.1525L565.688 96.18C565.688 93.76 564.762 92.55 562.91 92.55C562.012 92.55 561.187 92.66 560.435 92.88L560.16 94.3925L558.4 94.0625L558.84 91.56C560.27 91.0467 561.6 90.79 562.828 90.79C566.165 90.79 567.833 92.55 567.833 96.07V100.855L570.445 101.707L569.895 103.468L566.183 102.202ZM562.223 97.885C560.591 97.885 559.775 98.4992 559.775 99.7275C559.775 101.011 560.655 101.652 562.415 101.652C563.68 101.652 564.771 101.304 565.688 100.607V97.9125L562.223 97.885ZM577.839 103.413C577.179 103.413 576.547 103.284 575.942 103.028C575.355 102.771 574.878 102.312 574.512 101.652C574.145 100.992 573.962 100.076 573.962 98.9025V92.9075H571.679V91.2025H573.962V88.535L576.052 88.04V91.2025H579.489V92.9075H576.052V97.6925C576.052 98.9208 576.171 99.9108 576.409 100.662C576.647 101.414 577.17 101.79 577.977 101.79C578.545 101.79 579.187 101.625 579.902 101.295L580.314 102.835C579.929 102.982 579.526 103.11 579.104 103.22C578.682 103.348 578.261 103.413 577.839 103.413ZM592.59 101.597C591.856 102.221 591.105 102.679 590.335 102.972C589.583 103.266 588.721 103.413 587.75 103.413C585.806 103.413 584.257 102.862 583.102 101.762C581.965 100.644 581.397 99.0858 581.397 97.0875C581.397 95.8225 581.645 94.7225 582.14 93.7875C582.635 92.8342 583.331 92.1008 584.23 91.5875C585.146 91.0558 586.2 90.79 587.392 90.79C589.06 90.79 590.362 91.3125 591.297 92.3575C592.25 93.4025 592.727 94.7958 592.727 96.5375C592.727 96.7025 592.718 96.8767 592.7 97.06C592.7 97.225 592.69 97.3992 592.672 97.5825L583.515 97.6375C583.57 98.5725 583.79 99.3333 584.175 99.92C584.578 100.507 585.082 100.937 585.687 101.212C586.31 101.487 586.97 101.625 587.667 101.625C589.225 101.625 590.536 101.185 591.6 100.305L592.59 101.597ZM590.61 95.905C590.591 94.8783 590.289 94.0533 589.702 93.43C589.134 92.7883 588.373 92.4675 587.42 92.4675C586.448 92.4675 585.595 92.7883 584.862 93.43C584.129 94.0533 583.689 94.8875 583.542 95.9325L590.61 95.905ZM246.442 122.802H258.624L260.027 127.037L258.239 127.642L257.139 124.7H251.254V129.842H255.792V131.74H251.227V137.102H254.582V139H246.414V137.102H249.054L249.082 124.7H246.442V122.802ZM265.885 128.082C266.509 127.661 267.214 127.34 268.003 127.12C268.791 126.9 269.579 126.79 270.368 126.79C271.028 126.79 271.376 126.808 271.413 126.845L271.88 129.732L270.093 130.117L269.818 128.577C269.249 128.577 268.663 128.66 268.058 128.825C267.471 128.99 266.93 129.219 266.435 129.512V137.295H269.13V139H261.98V137.295H264.29V129.43L261.65 128.522L262.228 126.817L265.885 128.082ZM279.696 126.79C280.924 126.79 281.987 127.047 282.886 127.56C283.802 128.055 284.517 128.779 285.031 129.732C285.544 130.667 285.801 131.795 285.801 133.115C285.801 135.077 285.242 136.617 284.123 137.735C283.005 138.853 281.529 139.413 279.696 139.413C278.522 139.413 277.477 139.165 276.561 138.67C275.662 138.157 274.957 137.432 274.443 136.497C273.948 135.544 273.701 134.417 273.701 133.115C273.701 131.795 273.948 130.667 274.443 129.732C274.957 128.779 275.662 128.055 276.561 127.56C277.477 127.047 278.522 126.79 279.696 126.79ZM279.723 128.55C278.458 128.55 277.505 128.953 276.863 129.76C276.222 130.548 275.901 131.667 275.901 133.115C275.901 134.563 276.222 135.682 276.863 136.47C277.505 137.258 278.458 137.652 279.723 137.652C281.025 137.652 281.997 137.258 282.638 136.47C283.28 135.682 283.601 134.563 283.601 133.115C283.601 131.667 283.28 130.548 282.638 129.76C281.997 128.953 281.025 128.55 279.723 128.55ZM288.082 139V137.295H290.392V129.402L287.752 128.495L288.33 126.79L291.987 128.055C292.629 127.633 293.307 127.322 294.022 127.12C294.755 126.9 295.47 126.79 296.167 126.79C297.047 126.79 297.854 126.964 298.587 127.312C299.339 127.642 299.935 128.156 300.375 128.852C300.833 129.531 301.062 130.392 301.062 131.437V137.295H303.372V139H297.68V137.295H298.917V131.877C298.917 130.704 298.615 129.861 298.01 129.347C297.423 128.816 296.69 128.55 295.81 128.55C294.765 128.55 293.674 128.862 292.537 129.485V137.295H293.775V139H288.082ZM311.081 139.413C310.421 139.413 309.789 139.284 309.184 139.028C308.597 138.771 308.12 138.312 307.754 137.652C307.387 136.992 307.204 136.076 307.204 134.902V128.907H304.921V127.202H307.204V124.535L309.294 124.04V127.202H312.731V128.907H309.294V133.692C309.294 134.921 309.413 135.911 309.651 136.662C309.889 137.414 310.412 137.79 311.219 137.79C311.787 137.79 312.429 137.625 313.144 137.295L313.556 138.835C313.171 138.982 312.768 139.11 312.346 139.22C311.924 139.348 311.503 139.413 311.081 139.413ZM315.874 122.802H328.084L329.486 127.037L327.699 127.642L326.599 124.7H320.714V129.677H325.856V131.575H320.714L320.686 137.102H327.149L328.249 134.16L330.036 134.765L328.634 139H315.846V137.102H318.486L318.514 124.7H315.874V122.802ZM332.674 139V137.295H334.984V129.402L332.344 128.495L332.921 126.79L336.579 128.055C337.221 127.633 337.899 127.322 338.614 127.12C339.347 126.9 340.062 126.79 340.759 126.79C341.639 126.79 342.446 126.964 343.179 127.312C343.931 127.642 344.526 128.156 344.966 128.852C345.425 129.531 345.654 130.392 345.654 131.437V137.295H347.964V139H342.271V137.295H343.509V131.877C343.509 130.704 343.206 129.861 342.601 129.347C342.015 128.816 341.281 128.55 340.401 128.55C339.356 128.55 338.266 128.862 337.129 129.485V137.295H338.366V139H332.674ZM363.235 139.468L359.578 138.202C358.46 139.009 357.268 139.413 356.003 139.413C354.115 139.413 352.639 138.835 351.575 137.68C350.53 136.507 350.008 134.893 350.008 132.84C350.008 130.933 350.53 129.448 351.575 128.385C352.639 127.322 354.115 126.79 356.003 126.79C356.498 126.79 357.011 126.845 357.543 126.955C358.093 127.047 358.597 127.184 359.055 127.367V123.765L356.443 122.857L357.02 121.152L361.2 122.582V136.827L363.785 137.707L363.235 139.468ZM356.03 137.652C356.489 137.652 356.993 137.561 357.543 137.377C358.093 137.176 358.597 136.928 359.055 136.635V129.237C358.652 129.036 358.166 128.871 357.598 128.742C357.048 128.614 356.525 128.55 356.03 128.55C354.894 128.55 353.968 128.944 353.253 129.732C352.556 130.502 352.208 131.529 352.208 132.812C352.208 134.261 352.556 135.434 353.253 136.332C353.968 137.212 354.894 137.652 356.03 137.652ZM386.733 139.468L383.075 138.202C381.957 139.009 380.765 139.413 379.5 139.413C377.612 139.413 376.136 138.835 375.073 137.68C374.028 136.507 373.505 134.893 373.505 132.84C373.505 130.933 374.028 129.448 375.073 128.385C376.136 127.322 377.612 126.79 379.5 126.79C379.995 126.79 380.509 126.845 381.04 126.955C381.59 127.047 382.095 127.184 382.553 127.367V123.765L379.94 122.857L380.518 121.152L384.698 122.582V136.827L387.283 137.707L386.733 139.468ZM379.528 137.652C379.986 137.652 380.49 137.561 381.04 137.377C381.59 137.176 382.095 136.928 382.553 136.635V129.237C382.15 129.036 381.664 128.871 381.095 128.742C380.545 128.614 380.023 128.55 379.528 128.55C378.391 128.55 377.465 128.944 376.75 129.732C376.054 130.502 375.705 131.529 375.705 132.812C375.705 134.261 376.054 135.434 376.75 136.332C377.465 137.212 378.391 137.652 379.528 137.652ZM400.688 137.597C399.955 138.221 399.203 138.679 398.433 138.972C397.682 139.266 396.82 139.413 395.848 139.413C393.905 139.413 392.356 138.862 391.201 137.762C390.064 136.644 389.496 135.086 389.496 133.087C389.496 131.822 389.743 130.722 390.238 129.787C390.733 128.834 391.43 128.101 392.328 127.587C393.245 127.056 394.299 126.79 395.491 126.79C397.159 126.79 398.461 127.312 399.396 128.357C400.349 129.402 400.826 130.796 400.826 132.537C400.826 132.702 400.817 132.877 400.798 133.06C400.798 133.225 400.789 133.399 400.771 133.582L391.613 133.637C391.668 134.572 391.888 135.333 392.273 135.92C392.677 136.507 393.181 136.937 393.786 137.212C394.409 137.487 395.069 137.625 395.766 137.625C397.324 137.625 398.635 137.185 399.698 136.305L400.688 137.597ZM398.708 131.905C398.69 130.878 398.388 130.053 397.801 129.43C397.233 128.788 396.472 128.467 395.518 128.467C394.547 128.467 393.694 128.788 392.961 129.43C392.228 130.053 391.788 130.887 391.641 131.933L398.708 131.905ZM401.463 127.202H407.238V128.907H405.973L408.448 134.765L409.438 137.102L410.428 134.765L412.903 128.907H411.693V127.202H417.193V128.907H415.048L410.538 139H408.118L403.745 128.907H401.463V127.202ZM429.074 137.597C428.34 138.221 427.589 138.679 426.819 138.972C426.067 139.266 425.205 139.413 424.234 139.413C422.29 139.413 420.741 138.862 419.586 137.762C418.449 136.644 417.881 135.086 417.881 133.087C417.881 131.822 418.129 130.722 418.624 129.787C419.119 128.834 419.815 128.101 420.714 127.587C421.63 127.056 422.684 126.79 423.876 126.79C425.544 126.79 426.846 127.312 427.781 128.357C428.734 129.402 429.211 130.796 429.211 132.537C429.211 132.702 429.202 132.877 429.184 133.06C429.184 133.225 429.174 133.399 429.156 133.582L419.999 133.637C420.054 134.572 420.274 135.333 420.659 135.92C421.062 136.507 421.566 136.937 422.171 137.212C422.794 137.487 423.454 137.625 424.151 137.625C425.709 137.625 427.02 137.185 428.084 136.305L429.074 137.597ZM427.094 131.905C427.075 130.878 426.773 130.053 426.186 129.43C425.618 128.788 424.857 128.467 423.904 128.467C422.932 128.467 422.079 128.788 421.346 129.43C420.613 130.053 420.173 130.887 420.026 131.933L427.094 131.905ZM431.499 139V137.295H433.809V123.435L431.059 122.83L431.527 121.07L435.954 122.087V137.295H438.264V139H431.499ZM446.569 126.79C447.798 126.79 448.861 127.047 449.759 127.56C450.676 128.055 451.391 128.779 451.904 129.732C452.418 130.667 452.674 131.795 452.674 133.115C452.674 135.077 452.115 136.617 450.997 137.735C449.878 138.853 448.403 139.413 446.569 139.413C445.396 139.413 444.351 139.165 443.434 138.67C442.536 138.157 441.83 137.432 441.317 136.497C440.822 135.544 440.574 134.417 440.574 133.115C440.574 131.795 440.822 130.667 441.317 129.732C441.83 128.779 442.536 128.055 443.434 127.56C444.351 127.047 445.396 126.79 446.569 126.79ZM446.597 128.55C445.332 128.55 444.378 128.953 443.737 129.76C443.095 130.548 442.774 131.667 442.774 133.115C442.774 134.563 443.095 135.682 443.737 136.47C444.378 137.258 445.332 137.652 446.597 137.652C447.898 137.652 448.87 137.258 449.512 136.47C450.153 135.682 450.474 134.563 450.474 133.115C450.474 131.667 450.153 130.548 449.512 129.76C448.87 128.953 447.898 128.55 446.597 128.55ZM454.625 144.72V143.015H456.935V129.32L454.35 128.467L454.9 126.707L458.585 127.972C459.172 127.606 459.786 127.322 460.428 127.12C461.07 126.9 461.675 126.79 462.243 126.79C464.058 126.79 465.488 127.322 466.533 128.385C467.596 129.43 468.128 130.878 468.128 132.73C468.128 134.032 467.871 135.187 467.358 136.195C466.863 137.203 466.166 137.992 465.268 138.56C464.37 139.128 463.325 139.413 462.133 139.413C461.088 139.413 460.07 139.257 459.08 138.945V143.015H461.39V144.72H454.625ZM462.105 137.652C463.297 137.652 464.232 137.222 464.91 136.36C465.589 135.48 465.928 134.27 465.928 132.73C465.928 129.943 464.69 128.55 462.215 128.55C461.647 128.55 461.06 128.651 460.455 128.852C459.869 129.036 459.41 129.274 459.08 129.567V136.965C459.392 137.167 459.832 137.332 460.4 137.46C460.969 137.588 461.537 137.652 462.105 137.652ZM482.031 137.597C481.297 138.221 480.546 138.679 479.776 138.972C479.024 139.266 478.162 139.413 477.191 139.413C475.247 139.413 473.698 138.862 472.543 137.762C471.406 136.644 470.838 135.086 470.838 133.087C470.838 131.822 471.086 130.722 471.581 129.787C472.076 128.834 472.772 128.101 473.671 127.587C474.587 127.056 475.641 126.79 476.833 126.79C478.501 126.79 479.803 127.312 480.738 128.357C481.691 129.402 482.168 130.796 482.168 132.537C482.168 132.702 482.159 132.877 482.141 133.06C482.141 133.225 482.131 133.399 482.113 133.582L472.956 133.637C473.011 134.572 473.231 135.333 473.616 135.92C474.019 136.507 474.523 136.937 475.128 137.212C475.751 137.487 476.411 137.625 477.108 137.625C478.666 137.625 479.977 137.185 481.041 136.305L482.031 137.597ZM480.051 131.905C480.032 130.878 479.73 130.053 479.143 129.43C478.575 128.788 477.814 128.467 476.861 128.467C475.889 128.467 475.036 128.788 474.303 129.43C473.57 130.053 473.13 130.887 472.983 131.933L480.051 131.905ZM488.374 128.082C488.998 127.661 489.703 127.34 490.492 127.12C491.28 126.9 492.068 126.79 492.857 126.79C493.517 126.79 493.865 126.808 493.902 126.845L494.369 129.732L492.582 130.117L492.307 128.577C491.738 128.577 491.152 128.66 490.547 128.825C489.96 128.99 489.419 129.219 488.924 129.512V137.295H491.619V139H484.469V137.295H486.779V129.43L484.139 128.522L484.717 126.817L488.374 128.082Z" fill="#898989"/>
</svg>
